# MagicaVoxel @ Ephtracy

# group
o 

# material
mtllib tabby2.mtl
usemtl palette

# normals
vn -1 0 0
vn 1 0 0
vn 0 0 1
vn 0 0 -1
vn 0 -1 0
vn 0 1 0

# texcoords
vt 0.955078 0.5
vt 0.978516 0.5
vt 0.982422 0.5
vt 0.986328 0.5
vt 0.990234 0.5
vt 0.994141 0.5

# verts
v -0.5 0.8 0.6
v -0.5 0.8 0.5
v -0.5 0.9 0.6
v -0.5 0.9 0.5
v -0.5 1 0.6
v -0.5 1 0.5
v -0.5 1.1 0.6
v -0.5 1.1 0.5
v -0.4 0.8 0.5
v -0.4 0.8 0.2
v -0.4 0.9 0.6
v -0.4 0.9 0.5
v -0.4 1 0.6
v -0.4 1 0.5
v -0.4 1.1 0.6
v -0.4 1.1 0.5
v -0.4 1.2 0.6
v -0.4 1.2 0.5
v -0.4 1.2 0.4
v -0.4 1.2 0.3
v -0.4 1.2 0.2
v -0.4 1.5 0.5
v -0.4 1.5 0.4
v -0.4 1.5 0.3
v -0.4 1.6 0.5
v -0.4 1.6 0.4
v -0.3 0.1 0.5
v -0.3 0.1 0.4
v -0.3 0.1 0.3
v -0.3 0.1 -0.3
v -0.3 0.1 -0.4
v -0.3 0.1 -0.5
v -0.3 0.2 0.5
v -0.3 0.2 0.4
v -0.3 0.2 -0.3
v -0.3 0.2 -0.4
v -0.3 0.4 0.3
v -0.3 0.4 -0.4
v -0.3 0.7 0.6
v -0.3 0.7 0.4
v -0.3 0.7 0
v -0.3 0.7 -0.1
v -0.3 0.7 -0.2
v -0.3 0.7 -0.3
v -0.3 0.8 0.6
v -0.3 0.8 0.2
v -0.3 0.8 0
v -0.3 0.8 -0.1
v -0.3 0.8 -0.2
v -0.3 0.8 -0.3
v -0.3 0.8 -0.5
v -0.3 1.2 0.6
v -0.3 1.2 0.5
v -0.3 1.2 0.3
v -0.3 1.2 0.2
v -0.3 1.3 0.6
v -0.3 1.3 0.5
v -0.3 1.3 0.3
v -0.3 1.3 0.2
v -0.1 0.8 0.7
v -0.1 0.8 0.6
v -0.1 0.9 0.6
v -0.1 1 0.7
v -0.1 1 0.6
v -0.1 1 -0.5
v -0.1 1 -0.6
v -0.1 1.3 -0.5
v -0.1 1.3 -0.6
v 0 0.7 -0.5
v 0 0.7 -0.6
v 0 0.8 -0.5
v 0 1 -0.5
v 0 1 -0.6
v 0 1.3 -0.5
v 0 1.3 -0.6
v 0 1.4 -0.5
v 0 1.4 -0.6
v 0.2 0.1 0.5
v 0.2 0.1 0.4
v 0.2 0.1 0.3
v 0.2 0.1 -0.3
v 0.2 0.1 -0.4
v 0.2 0.1 -0.5
v 0.2 0.2 0.5
v 0.2 0.2 0.4
v 0.2 0.2 -0.3
v 0.2 0.2 -0.4
v 0.2 0.4 0.4
v 0.2 0.4 0.3
v 0.2 0.4 -0.4
v 0.2 0.4 -0.5
v 0.2 1.3 0.5
v 0.2 1.3 0.4
v 0.2 1.4 0.5
v 0.2 1.4 0.4
v 0.3 1.3 0.4
v 0.3 1.3 0.3
v 0.3 1.4 0.5
v 0.3 1.4 0.4
v 0.3 1.4 0.3
v 0.3 1.5 0.5
v 0.3 1.5 0.4
v 0.4 1.4 0.4
v 0.4 1.4 0.3
v 0.4 1.5 0.5
v 0.4 1.5 0.4
v 0.4 1.5 0.3
v 0.4 1.6 0.5
v 0.4 1.6 0.4
v -0.3 1.4 0.4
v -0.3 1.4 0.3
v -0.3 1.5 0.5
v -0.3 1.5 0.4
v -0.3 1.5 0.3
v -0.3 1.6 0.5
v -0.3 1.6 0.4
v -0.2 1.3 0.4
v -0.2 1.3 0.3
v -0.2 1.4 0.5
v -0.2 1.4 0.4
v -0.2 1.4 0.3
v -0.2 1.5 0.5
v -0.2 1.5 0.4
v -0.1 0.1 0.5
v -0.1 0.1 0.4
v -0.1 0.1 0.3
v -0.1 0.1 -0.3
v -0.1 0.1 -0.4
v -0.1 0.1 -0.5
v -0.1 0.2 0.5
v -0.1 0.2 0.4
v -0.1 0.2 -0.3
v -0.1 0.2 -0.4
v -0.1 0.4 0.4
v -0.1 0.4 0.3
v -0.1 0.4 -0.4
v -0.1 0.4 -0.5
v -0.1 1.3 0.5
v -0.1 1.3 0.4
v -0.1 1.4 0.5
v -0.1 1.4 0.4
v 0 1 -0.5
v 0 1 -0.6
v 0 1.3 -0.5
v 0 1.3 -0.6
v 0.1 0.7 -0.5
v 0.1 0.7 -0.6
v 0.1 0.8 -0.5
v 0.1 1 -0.5
v 0.1 1 -0.6
v 0.1 1.3 -0.5
v 0.1 1.3 -0.6
v 0.1 1.4 -0.5
v 0.1 1.4 -0.6
v 0.2 0.8 0.7
v 0.2 0.8 0.6
v 0.2 0.9 0.6
v 0.2 1 0.7
v 0.2 1 0.6
v 0.4 0.1 0.5
v 0.4 0.1 0.4
v 0.4 0.1 0.3
v 0.4 0.1 -0.3
v 0.4 0.1 -0.4
v 0.4 0.1 -0.5
v 0.4 0.2 0.5
v 0.4 0.2 0.4
v 0.4 0.2 -0.3
v 0.4 0.2 -0.4
v 0.4 0.4 0.3
v 0.4 0.4 -0.4
v 0.4 0.7 0.6
v 0.4 0.7 0.4
v 0.4 0.7 0
v 0.4 0.7 -0.1
v 0.4 0.7 -0.2
v 0.4 0.7 -0.3
v 0.4 0.8 0.6
v 0.4 0.8 0.2
v 0.4 0.8 0
v 0.4 0.8 -0.1
v 0.4 0.8 -0.2
v 0.4 0.8 -0.3
v 0.4 0.8 -0.5
v 0.4 1.2 0.6
v 0.4 1.2 0.5
v 0.4 1.2 0.3
v 0.4 1.2 0.2
v 0.4 1.3 0.6
v 0.4 1.3 0.5
v 0.4 1.3 0.3
v 0.4 1.3 0.2
v 0.5 0.8 0.5
v 0.5 0.8 0.2
v 0.5 0.9 0.6
v 0.5 0.9 0.5
v 0.5 1 0.6
v 0.5 1 0.5
v 0.5 1.1 0.6
v 0.5 1.1 0.5
v 0.5 1.2 0.6
v 0.5 1.2 0.5
v 0.5 1.2 0.4
v 0.5 1.2 0.3
v 0.5 1.2 0.2
v 0.5 1.5 0.5
v 0.5 1.5 0.4
v 0.5 1.5 0.3
v 0.5 1.6 0.5
v 0.5 1.6 0.4
v 0.6 0.8 0.6
v 0.6 0.8 0.5
v 0.6 0.9 0.6
v 0.6 0.9 0.5
v 0.6 1 0.6
v 0.6 1 0.5
v 0.6 1.1 0.6
v 0.6 1.1 0.5
v -0.1 0.8 0.7
v -0.1 1 0.7
v 0 0.9 0.7
v 0 1 0.7
v 0.1 0.9 0.7
v 0.1 1 0.7
v 0.2 0.8 0.7
v 0.2 1 0.7
v -0.5 0.8 0.6
v -0.5 0.9 0.6
v -0.5 1 0.6
v -0.5 1.1 0.6
v -0.4 0.8 0.6
v -0.4 0.9 0.6
v -0.4 1 0.6
v -0.4 1.1 0.6
v -0.4 1.2 0.6
v -0.3 0.7 0.6
v -0.3 0.8 0.6
v -0.3 0.9 0.6
v -0.3 1.2 0.6
v -0.3 1.3 0.6
v -0.2 0.9 0.6
v -0.2 1.1 0.6
v -0.1 0.8 0.6
v -0.1 0.9 0.6
v -0.1 1 0.6
v -0.1 1.1 0.6
v -0.1 1.2 0.6
v -0.1 1.3 0.6
v 0 1 0.6
v 0 1.2 0.6
v 0 1.3 0.6
v 0.1 1 0.6
v 0.1 1.2 0.6
v 0.1 1.3 0.6
v 0.2 0.8 0.6
v 0.2 0.9 0.6
v 0.2 1 0.6
v 0.2 1.1 0.6
v 0.2 1.2 0.6
v 0.2 1.3 0.6
v 0.3 0.9 0.6
v 0.3 1.1 0.6
v 0.4 0.7 0.6
v 0.4 0.8 0.6
v 0.4 0.9 0.6
v 0.4 1.2 0.6
v 0.4 1.3 0.6
v 0.5 0.8 0.6
v 0.5 0.9 0.6
v 0.5 1 0.6
v 0.5 1.1 0.6
v 0.5 1.2 0.6
v 0.6 0.8 0.6
v 0.6 0.9 0.6
v 0.6 1 0.6
v 0.6 1.1 0.6
v -0.4 1.2 0.5
v -0.4 1.5 0.5
v -0.4 1.6 0.5
v -0.3 0.1 0.5
v -0.3 0.2 0.5
v -0.3 1.2 0.5
v -0.3 1.3 0.5
v -0.3 1.4 0.5
v -0.3 1.5 0.5
v -0.3 1.6 0.5
v -0.2 1.3 0.5
v -0.2 1.4 0.5
v -0.2 1.5 0.5
v -0.1 0.1 0.5
v -0.1 0.2 0.5
v -0.1 1.3 0.5
v -0.1 1.4 0.5
v 0.2 0.1 0.5
v 0.2 0.2 0.5
v 0.2 1.3 0.5
v 0.2 1.4 0.5
v 0.3 1.3 0.5
v 0.3 1.4 0.5
v 0.3 1.5 0.5
v 0.4 0.1 0.5
v 0.4 0.2 0.5
v 0.4 1.2 0.5
v 0.4 1.3 0.5
v 0.4 1.4 0.5
v 0.4 1.5 0.5
v 0.4 1.6 0.5
v 0.5 1.2 0.5
v 0.5 1.5 0.5
v 0.5 1.6 0.5
v -0.3 0.2 0.4
v -0.3 0.7 0.4
v -0.1 0.2 0.4
v -0.1 0.4 0.4
v -0.1 0.5 0.4
v 0.2 0.2 0.4
v 0.2 0.4 0.4
v 0.2 0.5 0.4
v 0.4 0.2 0.4
v 0.4 0.7 0.4
v -0.3 0.1 -0.3
v -0.3 0.2 -0.3
v -0.1 0.1 -0.3
v -0.1 0.2 -0.3
v 0.2 0.1 -0.3
v 0.2 0.2 -0.3
v 0.4 0.1 -0.3
v 0.4 0.2 -0.3
v -0.3 0.2 -0.4
v -0.3 0.4 -0.4
v -0.1 0.2 -0.4
v -0.1 0.4 -0.4
v 0.2 0.2 -0.4
v 0.2 0.4 -0.4
v 0.4 0.2 -0.4
v 0.4 0.4 -0.4
v -0.1 1 -0.5
v -0.1 1.3 -0.5
v 0 0.8 -0.5
v 0 1 -0.5
v 0 1.3 -0.5
v 0 1.4 -0.5
v 0.1 0.8 -0.5
v 0.1 1 -0.5
v 0.1 1.3 -0.5
v 0.1 1.4 -0.5
v -0.5 0.8 0.5
v -0.5 0.9 0.5
v -0.5 1 0.5
v -0.5 1.1 0.5
v -0.4 0.8 0.5
v -0.4 0.9 0.5
v -0.4 1 0.5
v -0.4 1.1 0.5
v 0.5 0.8 0.5
v 0.5 0.9 0.5
v 0.5 1 0.5
v 0.5 1.1 0.5
v 0.6 0.8 0.5
v 0.6 0.9 0.5
v 0.6 1 0.5
v 0.6 1.1 0.5
v -0.4 1.5 0.4
v -0.4 1.6 0.4
v -0.3 1.4 0.4
v -0.3 1.5 0.4
v -0.3 1.6 0.4
v -0.2 1.3 0.4
v -0.2 1.4 0.4
v -0.2 1.5 0.4
v -0.1 1.3 0.4
v -0.1 1.4 0.4
v 0.2 1.3 0.4
v 0.2 1.4 0.4
v 0.3 1.3 0.4
v 0.3 1.4 0.4
v 0.3 1.5 0.4
v 0.4 1.4 0.4
v 0.4 1.5 0.4
v 0.4 1.6 0.4
v 0.5 1.5 0.4
v 0.5 1.6 0.4
v -0.4 1.2 0.3
v -0.4 1.5 0.3
v -0.3 0.1 0.3
v -0.3 0.4 0.3
v -0.3 1.2 0.3
v -0.3 1.3 0.3
v -0.3 1.4 0.3
v -0.3 1.5 0.3
v -0.2 1.3 0.3
v -0.2 1.4 0.3
v -0.1 0.1 0.3
v -0.1 0.4 0.3
v 0.2 0.1 0.3
v 0.2 0.4 0.3
v 0.3 1.3 0.3
v 0.3 1.4 0.3
v 0.4 0.1 0.3
v 0.4 0.4 0.3
v 0.4 1.2 0.3
v 0.4 1.3 0.3
v 0.4 1.4 0.3
v 0.4 1.5 0.3
v 0.5 1.2 0.3
v 0.5 1.5 0.3
v -0.4 0.8 0.2
v -0.4 1.2 0.2
v -0.3 0.8 0.2
v -0.3 1.2 0.2
v -0.3 1.3 0.2
v 0.4 0.8 0.2
v 0.4 1.2 0.2
v 0.4 1.3 0.2
v 0.5 0.8 0.2
v 0.5 1.2 0.2
v -0.3 0.1 -0.5
v -0.3 0.8 -0.5
v -0.1 0.1 -0.5
v -0.1 0.4 -0.5
v -0.1 0.5 -0.5
v 0 0.6 -0.5
v 0 0.7 -0.5
v 0 0.8 -0.5
v 0.1 0.6 -0.5
v 0.1 0.7 -0.5
v 0.1 0.8 -0.5
v 0.2 0.1 -0.5
v 0.2 0.4 -0.5
v 0.2 0.5 -0.5
v 0.4 0.1 -0.5
v 0.4 0.8 -0.5
v -0.1 1 -0.6
v -0.1 1.3 -0.6
v 0 0.7 -0.6
v 0 1 -0.6
v 0 1.3 -0.6
v 0 1.4 -0.6
v 0.1 0.7 -0.6
v 0.1 1 -0.6
v 0.1 1.3 -0.6
v 0.1 1.4 -0.6
v -0.3 0.1 0.5
v -0.1 0.1 0.5
v 0.2 0.1 0.5
v 0.4 0.1 0.5
v -0.3 0.1 0.4
v -0.1 0.1 0.4
v 0.2 0.1 0.4
v 0.4 0.1 0.4
v -0.3 0.1 0.3
v -0.1 0.1 0.3
v 0.2 0.1 0.3
v 0.4 0.1 0.3
v -0.3 0.1 -0.3
v -0.1 0.1 -0.3
v 0.2 0.1 -0.3
v 0.4 0.1 -0.3
v -0.3 0.1 -0.4
v -0.1 0.1 -0.4
v 0.2 0.1 -0.4
v 0.4 0.1 -0.4
v -0.3 0.1 -0.5
v -0.1 0.1 -0.5
v 0.2 0.1 -0.5
v 0.4 0.1 -0.5
v -0.1 0.4 0.4
v 0.2 0.4 0.4
v -0.3 0.4 0.3
v -0.1 0.4 0.3
v 0.2 0.4 0.3
v 0.4 0.4 0.3
v -0.3 0.4 -0.4
v -0.1 0.4 -0.4
v 0.2 0.4 -0.4
v 0.4 0.4 -0.4
v -0.1 0.4 -0.5
v 0.2 0.4 -0.5
v -0.3 0.7 0.6
v 0.4 0.7 0.6
v -0.3 0.7 0.4
v 0.4 0.7 0.4
v 0 0.7 -0.5
v 0.1 0.7 -0.5
v 0 0.7 -0.6
v 0.1 0.7 -0.6
v -0.1 0.8 0.7
v 0.2 0.8 0.7
v -0.5 0.8 0.6
v -0.4 0.8 0.6
v -0.3 0.8 0.6
v -0.1 0.8 0.6
v 0.2 0.8 0.6
v 0.4 0.8 0.6
v 0.5 0.8 0.6
v 0.6 0.8 0.6
v -0.5 0.8 0.5
v -0.4 0.8 0.5
v 0.5 0.8 0.5
v 0.6 0.8 0.5
v -0.4 0.8 0.2
v -0.3 0.8 0.2
v 0.4 0.8 0.2
v 0.5 0.8 0.2
v -0.5 1 0.6
v -0.4 1 0.6
v 0.5 1 0.6
v 0.6 1 0.6
v -0.5 1 0.5
v -0.4 1 0.5
v 0.5 1 0.5
v 0.6 1 0.5
v -0.1 1 -0.5
v 0 1 -0.5
v -0.1 1 -0.6
v 0 1 -0.6
v 0 1.3 -0.5
v 0.1 1.3 -0.5
v 0 1.3 -0.6
v 0.1 1.3 -0.6
v -0.3 0.2 0.5
v -0.1 0.2 0.5
v 0.2 0.2 0.5
v 0.4 0.2 0.5
v -0.3 0.2 0.4
v -0.1 0.2 0.4
v 0.2 0.2 0.4
v 0.4 0.2 0.4
v -0.3 0.2 -0.3
v -0.1 0.2 -0.3
v 0.2 0.2 -0.3
v 0.4 0.2 -0.3
v -0.3 0.2 -0.4
v -0.1 0.2 -0.4
v 0.2 0.2 -0.4
v 0.4 0.2 -0.4
v -0.3 0.8 0.2
v 0.4 0.8 0.2
v -0.3 0.8 0
v 0.4 0.8 0
v -0.3 0.8 -0.1
v 0.4 0.8 -0.1
v -0.3 0.8 -0.2
v 0.4 0.8 -0.2
v -0.3 0.8 -0.3
v 0.4 0.8 -0.3
v -0.3 0.8 -0.5
v 0 0.8 -0.5
v 0.1 0.8 -0.5
v 0.4 0.8 -0.5
v -0.5 0.9 0.6
v -0.4 0.9 0.6
v 0.5 0.9 0.6
v 0.6 0.9 0.6
v -0.5 0.9 0.5
v -0.4 0.9 0.5
v 0.5 0.9 0.5
v 0.6 0.9 0.5
v -0.1 1 0.7
v 0 1 0.7
v 0.1 1 0.7
v 0.2 1 0.7
v -0.1 1 0.6
v 0 1 0.6
v 0.1 1 0.6
v 0.2 1 0.6
v 0 1 -0.5
v 0.1 1 -0.5
v 0 1 -0.6
v 0.1 1 -0.6
v -0.5 1.1 0.6
v -0.4 1.1 0.6
v 0.5 1.1 0.6
v 0.6 1.1 0.6
v -0.5 1.1 0.5
v -0.4 1.1 0.5
v 0.5 1.1 0.5
v 0.6 1.1 0.5
v -0.4 1.2 0.6
v -0.3 1.2 0.6
v 0.4 1.2 0.6
v 0.5 1.2 0.6
v -0.4 1.2 0.5
v -0.3 1.2 0.5
v 0.4 1.2 0.5
v 0.5 1.2 0.5
v -0.4 1.2 0.3
v -0.3 1.2 0.3
v 0.4 1.2 0.3
v 0.5 1.2 0.3
v -0.4 1.2 0.2
v -0.3 1.2 0.2
v 0.4 1.2 0.2
v 0.5 1.2 0.2
v -0.3 1.3 0.6
v -0.1 1.3 0.6
v 0 1.3 0.6
v 0.1 1.3 0.6
v 0.2 1.3 0.6
v 0.4 1.3 0.6
v -0.3 1.3 0.5
v -0.2 1.3 0.5
v -0.1 1.3 0.5
v 0.2 1.3 0.5
v 0.3 1.3 0.5
v 0.4 1.3 0.5
v -0.2 1.3 0.4
v -0.1 1.3 0.4
v 0 1.3 0.4
v 0.1 1.3 0.4
v 0.2 1.3 0.4
v 0.3 1.3 0.4
v -0.3 1.3 0.3
v -0.2 1.3 0.3
v 0.3 1.3 0.3
v 0.4 1.3 0.3
v -0.3 1.3 0.2
v 0.4 1.3 0.2
v -0.1 1.3 -0.5
v 0 1.3 -0.5
v -0.1 1.3 -0.6
v 0 1.3 -0.6
v -0.2 1.4 0.5
v -0.1 1.4 0.5
v 0.2 1.4 0.5
v 0.3 1.4 0.5
v -0.3 1.4 0.4
v -0.2 1.4 0.4
v -0.1 1.4 0.4
v 0.2 1.4 0.4
v 0.3 1.4 0.4
v 0.4 1.4 0.4
v -0.3 1.4 0.3
v -0.2 1.4 0.3
v 0.3 1.4 0.3
v 0.4 1.4 0.3
v 0 1.4 -0.5
v 0.1 1.4 -0.5
v 0 1.4 -0.6
v 0.1 1.4 -0.6
v -0.3 1.5 0.5
v -0.2 1.5 0.5
v 0.3 1.5 0.5
v 0.4 1.5 0.5
v -0.4 1.5 0.4
v -0.3 1.5 0.4
v -0.2 1.5 0.4
v 0.3 1.5 0.4
v 0.4 1.5 0.4
v 0.5 1.5 0.4
v -0.4 1.5 0.3
v -0.3 1.5 0.3
v 0.4 1.5 0.3
v 0.5 1.5 0.3
v -0.4 1.6 0.5
v -0.3 1.6 0.5
v 0.4 1.6 0.5
v 0.5 1.6 0.5
v -0.4 1.6 0.4
v -0.3 1.6 0.4
v 0.4 1.6 0.4
v 0.5 1.6 0.4

# faces
f 3/6/1 2/6/1 1/6/1
f 4/6/1 2/6/1 3/6/1
f 7/6/1 6/6/1 5/6/1
f 8/6/1 6/6/1 7/6/1
f 12/4/1 10/4/1 9/4/1
f 13/4/1 12/4/1 11/4/1
f 14/4/1 10/4/1 12/4/1
f 14/4/1 12/4/1 13/4/1
f 16/4/1 10/4/1 14/4/1
f 17/4/1 16/4/1 15/4/1
f 18/4/1 10/4/1 16/4/1
f 18/4/1 16/4/1 17/4/1
f 19/4/1 10/4/1 18/4/1
f 20/4/1 10/4/1 19/4/1
f 21/4/1 10/4/1 20/4/1
f 22/3/1 19/3/1 18/3/1
f 23/4/1 20/4/1 19/4/1
f 23/3/1 19/3/1 22/3/1
f 24/4/1 20/4/1 23/4/1
f 25/4/1 23/4/1 22/4/1
f 26/4/1 23/4/1 25/4/1
f 33/6/1 28/6/1 27/6/1
f 34/4/1 29/4/1 28/4/1
f 34/6/1 28/6/1 33/6/1
f 35/6/1 31/6/1 30/6/1
f 36/4/1 32/4/1 31/4/1
f 36/6/1 31/6/1 35/6/1
f 37/4/1 29/4/1 34/4/1
f 38/4/1 32/4/1 36/4/1
f 40/4/1 37/4/1 34/4/1
f 40/4/1 38/4/1 37/4/1
f 41/4/1 38/4/1 40/4/1
f 42/4/1 38/4/1 41/4/1
f 43/4/1 38/4/1 42/4/1
f 44/4/1 38/4/1 43/4/1
f 45/4/1 40/4/1 39/4/1
f 45/4/1 41/4/1 40/4/1
f 46/4/1 41/4/1 45/4/1
f 47/1/1 42/1/1 41/1/1
f 47/4/1 41/4/1 46/4/1
f 48/4/1 43/4/1 42/4/1
f 48/1/1 42/1/1 47/1/1
f 49/1/1 44/1/1 43/1/1
f 49/4/1 43/4/1 48/4/1
f 50/4/1 38/4/1 44/4/1
f 50/1/1 44/1/1 49/1/1
f 51/4/1 32/4/1 38/4/1
f 51/4/1 38/4/1 50/4/1
f 56/4/1 53/4/1 52/4/1
f 57/4/1 53/4/1 56/4/1
f 58/4/1 55/4/1 54/4/1
f 59/4/1 55/4/1 58/4/1
f 62/4/1 61/4/1 60/4/1
f 63/4/1 62/4/1 60/4/1
f 64/4/1 62/4/1 63/4/1
f 67/4/1 66/4/1 65/4/1
f 68/4/1 66/4/1 67/4/1
f 71/4/1 70/4/1 69/4/1
f 72/4/1 70/4/1 71/4/1
f 73/4/1 70/4/1 72/4/1
f 76/4/1 75/4/1 74/4/1
f 77/4/1 75/4/1 76/4/1
f 84/6/1 79/6/1 78/6/1
f 85/4/1 80/4/1 79/4/1
f 85/6/1 79/6/1 84/6/1
f 86/6/1 82/6/1 81/6/1
f 87/4/1 83/4/1 82/4/1
f 87/6/1 82/6/1 86/6/1
f 88/4/1 80/4/1 85/4/1
f 89/4/1 80/4/1 88/4/1
f 90/4/1 83/4/1 87/4/1
f 91/4/1 83/4/1 90/4/1
f 94/4/1 93/4/1 92/4/1
f 95/4/1 93/4/1 94/4/1
f 99/4/1 97/4/1 96/4/1
f 100/4/1 97/4/1 99/4/1
f 101/4/1 99/4/1 98/4/1
f 102/4/1 99/4/1 101/4/1
f 106/4/1 104/4/1 103/4/1
f 107/4/1 104/4/1 106/4/1
f 108/4/1 106/4/1 105/4/1
f 109/4/1 106/4/1 108/4/1
f 110/4/2 111/4/2 113/4/2
f 113/4/2 111/4/2 114/4/2
f 112/4/2 113/4/2 115/4/2
f 115/4/2 113/4/2 116/4/2
f 117/4/2 118/4/2 120/4/2
f 120/4/2 118/4/2 121/4/2
f 119/4/2 120/4/2 122/4/2
f 122/4/2 120/4/2 123/4/2
f 124/6/2 125/6/2 130/6/2
f 125/4/2 126/4/2 131/4/2
f 130/6/2 125/6/2 131/6/2
f 127/6/2 128/6/2 132/6/2
f 128/4/2 129/4/2 133/4/2
f 132/6/2 128/6/2 133/6/2
f 131/4/2 126/4/2 134/4/2
f 134/4/2 126/4/2 135/4/2
f 133/4/2 129/4/2 136/4/2
f 136/4/2 129/4/2 137/4/2
f 138/4/2 139/4/2 140/4/2
f 140/4/2 139/4/2 141/4/2
f 142/4/2 143/4/2 144/4/2
f 144/4/2 143/4/2 145/4/2
f 146/4/2 147/4/2 148/4/2
f 148/4/2 147/4/2 149/4/2
f 149/4/2 147/4/2 150/4/2
f 151/4/2 152/4/2 153/4/2
f 153/4/2 152/4/2 154/4/2
f 155/4/2 156/4/2 157/4/2
f 155/4/2 157/4/2 158/4/2
f 158/4/2 157/4/2 159/4/2
f 160/6/2 161/6/2 166/6/2
f 161/4/2 162/4/2 167/4/2
f 166/6/2 161/6/2 167/6/2
f 163/6/2 164/6/2 168/6/2
f 164/4/2 165/4/2 169/4/2
f 168/6/2 164/6/2 169/6/2
f 167/4/2 162/4/2 170/4/2
f 169/4/2 165/4/2 171/4/2
f 167/4/2 170/4/2 173/4/2
f 170/4/2 171/4/2 173/4/2
f 173/4/2 171/4/2 174/4/2
f 174/4/2 171/4/2 175/4/2
f 175/4/2 171/4/2 176/4/2
f 176/4/2 171/4/2 177/4/2
f 172/4/2 173/4/2 178/4/2
f 173/4/2 174/4/2 178/4/2
f 178/4/2 174/4/2 179/4/2
f 174/1/2 175/1/2 180/1/2
f 179/4/2 174/4/2 180/4/2
f 175/4/2 176/4/2 181/4/2
f 180/1/2 175/1/2 181/1/2
f 176/1/2 177/1/2 182/1/2
f 181/4/2 176/4/2 182/4/2
f 177/4/2 171/4/2 183/4/2
f 182/1/2 177/1/2 183/1/2
f 171/4/2 165/4/2 184/4/2
f 183/4/2 171/4/2 184/4/2
f 185/4/2 186/4/2 189/4/2
f 189/4/2 186/4/2 190/4/2
f 187/4/2 188/4/2 191/4/2
f 191/4/2 188/4/2 192/4/2
f 193/4/2 194/4/2 196/4/2
f 195/4/2 196/4/2 197/4/2
f 196/4/2 194/4/2 198/4/2
f 197/4/2 196/4/2 198/4/2
f 198/4/2 194/4/2 200/4/2
f 199/4/2 200/4/2 201/4/2
f 200/4/2 194/4/2 202/4/2
f 201/4/2 200/4/2 202/4/2
f 202/4/2 194/4/2 203/4/2
f 203/4/2 194/4/2 204/4/2
f 204/4/2 194/4/2 205/4/2
f 202/3/2 203/3/2 206/3/2
f 203/4/2 204/4/2 207/4/2
f 206/3/2 203/3/2 207/3/2
f 207/4/2 204/4/2 208/4/2
f 206/4/2 207/4/2 209/4/2
f 209/4/2 207/4/2 210/4/2
f 211/6/2 212/6/2 213/6/2
f 213/6/2 212/6/2 214/6/2
f 215/6/2 216/6/2 217/6/2
f 217/6/2 216/6/2 218/6/2
f 221/4/3 220/4/3 219/4/3
f 222/4/3 220/4/3 221/4/3
f 223/4/3 221/4/3 219/4/3
f 223/3/3 222/3/3 221/3/3
f 224/3/3 222/3/3 223/3/3
f 225/4/3 223/4/3 219/4/3
f 225/4/3 224/4/3 223/4/3
f 226/4/3 224/4/3 225/4/3
f 231/6/3 228/6/3 227/6/3
f 232/6/3 228/6/3 231/6/3
f 233/6/3 230/6/3 229/6/3
f 234/6/3 230/6/3 233/6/3
f 237/4/3 232/4/3 231/4/3
f 237/4/3 235/4/3 234/4/3
f 237/4/3 234/4/3 233/4/3
f 237/4/3 233/4/3 232/4/3
f 238/4/3 235/4/3 237/4/3
f 239/4/3 235/4/3 238/4/3
f 241/4/3 237/4/3 236/4/3
f 241/4/3 238/4/3 237/4/3
f 241/5/3 239/5/3 238/5/3
f 242/5/3 239/5/3 241/5/3
f 243/4/3 241/4/3 236/4/3
f 244/2/3 242/2/3 241/2/3
f 244/4/3 241/4/3 243/4/3
f 245/2/3 242/2/3 244/2/3
f 246/5/3 239/5/3 242/5/3
f 246/2/3 242/2/3 245/2/3
f 247/4/3 240/4/3 239/4/3
f 247/5/3 239/5/3 246/5/3
f 248/4/3 240/4/3 247/4/3
f 249/4/3 246/4/3 245/4/3
f 249/4/3 247/4/3 246/4/3
f 250/1/3 248/1/3 247/1/3
f 250/4/3 247/4/3 249/4/3
f 251/1/3 248/1/3 250/1/3
f 252/4/3 250/4/3 249/4/3
f 252/4/3 251/4/3 250/4/3
f 253/4/3 251/4/3 252/4/3
f 254/4/3 251/4/3 253/4/3
f 255/4/3 243/4/3 236/4/3
f 257/4/3 253/4/3 252/4/3
f 258/4/3 253/4/3 257/4/3
f 259/1/3 254/1/3 253/1/3
f 259/4/3 253/4/3 258/4/3
f 260/1/3 254/1/3 259/1/3
f 261/4/3 256/4/3 255/4/3
f 261/2/3 258/2/3 257/2/3
f 261/2/3 257/2/3 256/2/3
f 262/5/3 259/5/3 258/5/3
f 262/2/3 258/2/3 261/2/3
f 263/4/3 255/4/3 236/4/3
f 263/4/3 261/4/3 255/4/3
f 264/4/3 261/4/3 263/4/3
f 265/5/3 262/5/3 261/5/3
f 265/4/3 261/4/3 264/4/3
f 266/4/3 260/4/3 259/4/3
f 266/5/3 262/5/3 265/5/3
f 266/5/3 259/5/3 262/5/3
f 267/4/3 260/4/3 266/4/3
f 268/4/3 265/4/3 264/4/3
f 268/4/3 266/4/3 265/4/3
f 269/4/3 266/4/3 268/4/3
f 270/4/3 266/4/3 269/4/3
f 271/4/3 266/4/3 270/4/3
f 272/4/3 266/4/3 271/4/3
f 273/6/3 269/6/3 268/6/3
f 274/6/3 269/6/3 273/6/3
f 275/6/3 271/6/3 270/6/3
f 276/6/3 271/6/3 275/6/3
f 282/3/3 278/3/3 277/3/3
f 283/3/3 278/3/3 282/3/3
f 284/3/3 278/3/3 283/3/3
f 285/4/3 279/4/3 278/4/3
f 285/3/3 278/3/3 284/3/3
f 286/4/3 279/4/3 285/4/3
f 287/3/3 284/3/3 283/3/3
f 288/4/3 285/4/3 284/4/3
f 288/3/3 284/3/3 287/3/3
f 289/4/3 285/4/3 288/4/3
f 290/6/3 281/6/3 280/6/3
f 291/6/3 281/6/3 290/6/3
f 292/4/3 288/4/3 287/4/3
f 293/4/3 288/4/3 292/4/3
f 298/4/3 297/4/3 296/4/3
f 299/4/3 297/4/3 298/4/3
f 301/6/3 295/6/3 294/6/3
f 302/6/3 295/6/3 301/6/3
f 304/3/3 299/3/3 298/3/3
f 305/4/3 300/4/3 299/4/3
f 305/3/3 299/3/3 304/3/3
f 306/4/3 300/4/3 305/4/3
f 308/3/3 306/3/3 305/3/3
f 308/3/3 305/3/3 304/3/3
f 308/3/3 304/3/3 303/3/3
f 309/4/3 307/4/3 306/4/3
f 309/3/3 306/3/3 308/3/3
f 310/4/3 307/4/3 309/4/3
f 313/4/3 312/4/3 311/4/3
f 314/4/3 312/4/3 313/4/3
f 315/4/3 312/4/3 314/4/3
f 317/6/3 315/6/3 314/6/3
f 318/4/3 312/4/3 315/4/3
f 318/6/3 315/6/3 317/6/3
f 319/4/3 317/4/3 316/4/3
f 319/4/3 318/4/3 317/4/3
f 320/4/3 312/4/3 318/4/3
f 320/4/3 318/4/3 319/4/3
f 323/6/3 322/6/3 321/6/3
f 324/6/3 322/6/3 323/6/3
f 327/6/3 326/6/3 325/6/3
f 328/6/3 326/6/3 327/6/3
f 331/4/3 330/4/3 329/4/3
f 332/4/3 330/4/3 331/4/3
f 335/4/3 334/4/3 333/4/3
f 336/4/3 334/4/3 335/4/3
f 340/4/3 338/4/3 337/4/3
f 341/4/3 338/4/3 340/4/3
f 343/4/3 340/4/3 339/4/3
f 344/4/3 340/4/3 343/4/3
f 345/4/3 342/4/3 341/4/3
f 346/4/3 342/4/3 345/4/3
f 347/6/4 348/6/4 351/6/4
f 351/6/4 348/6/4 352/6/4
f 349/6/4 350/6/4 353/6/4
f 353/6/4 350/6/4 354/6/4
f 355/6/4 356/6/4 359/6/4
f 359/6/4 356/6/4 360/6/4
f 357/6/4 358/6/4 361/6/4
f 361/6/4 358/6/4 362/6/4
f 363/4/4 364/4/4 366/4/4
f 366/4/4 364/4/4 367/4/4
f 365/4/4 366/4/4 369/4/4
f 369/4/4 366/4/4 370/4/4
f 368/4/4 369/4/4 371/4/4
f 371/4/4 369/4/4 372/4/4
f 373/4/4 374/4/4 375/4/4
f 375/4/4 374/4/4 376/4/4
f 376/4/4 377/4/4 378/4/4
f 378/4/4 377/4/4 379/4/4
f 379/4/4 380/4/4 381/4/4
f 381/4/4 380/4/4 382/4/4
f 383/4/4 384/4/4 387/4/4
f 387/4/4 384/4/4 388/4/4
f 388/4/4 384/4/4 389/4/4
f 389/4/4 384/4/4 390/4/4
f 388/4/4 389/4/4 391/4/4
f 391/4/4 389/4/4 392/4/4
f 385/4/4 386/4/4 393/4/4
f 393/4/4 386/4/4 394/4/4
f 395/4/4 396/4/4 399/4/4
f 399/4/4 396/4/4 400/4/4
f 397/4/4 398/4/4 402/4/4
f 402/4/4 398/4/4 403/4/4
f 402/4/4 403/4/4 405/4/4
f 403/4/4 404/4/4 405/4/4
f 401/4/4 402/4/4 405/4/4
f 405/4/4 404/4/4 406/4/4
f 407/4/4 408/4/4 409/4/4
f 409/4/4 408/4/4 410/4/4
f 409/4/4 410/4/4 412/4/4
f 410/4/4 411/4/4 412/4/4
f 412/4/4 411/4/4 413/4/4
f 413/4/4 411/4/4 414/4/4
f 412/4/4 413/4/4 415/4/4
f 415/4/4 413/4/4 416/4/4
f 417/4/4 418/4/4 419/4/4
f 419/4/4 418/4/4 420/4/4
f 420/4/4 418/4/4 421/4/4
f 421/4/4 418/4/4 422/4/4
f 422/4/4 418/4/4 423/4/4
f 423/4/4 418/4/4 424/4/4
f 421/4/4 422/4/4 425/4/4
f 422/3/4 423/3/4 425/3/4
f 425/3/4 423/3/4 426/3/4
f 420/6/4 421/6/4 429/6/4
f 426/4/4 427/4/4 430/4/4
f 421/4/4 425/4/4 430/4/4
f 429/6/4 421/6/4 430/6/4
f 425/4/4 426/4/4 430/4/4
f 428/4/4 429/4/4 431/4/4
f 429/4/4 430/4/4 431/4/4
f 430/4/4 427/4/4 432/4/4
f 431/4/4 430/4/4 432/4/4
f 433/4/4 434/4/4 436/4/4
f 436/4/4 434/4/4 437/4/4
f 435/4/4 436/4/4 439/4/4
f 439/4/4 436/4/4 440/4/4
f 437/4/4 438/4/4 441/4/4
f 441/4/4 438/4/4 442/4/4
f 447/6/5 444/6/5 443/6/5
f 448/6/5 444/6/5 447/6/5
f 449/6/5 446/6/5 445/6/5
f 450/6/5 446/6/5 449/6/5
f 451/4/5 448/4/5 447/4/5
f 452/4/5 448/4/5 451/4/5
f 453/4/5 450/4/5 449/4/5
f 454/4/5 450/4/5 453/4/5
f 459/6/5 456/6/5 455/6/5
f 460/6/5 456/6/5 459/6/5
f 461/6/5 458/6/5 457/6/5
f 462/6/5 458/6/5 461/6/5
f 463/4/5 460/4/5 459/4/5
f 464/4/5 460/4/5 463/4/5
f 465/4/5 462/4/5 461/4/5
f 466/4/5 462/4/5 465/4/5
f 470/6/5 468/6/5 467/6/5
f 471/6/5 468/6/5 470/6/5
f 473/4/5 470/4/5 469/4/5
f 474/6/5 471/6/5 470/6/5
f 474/4/5 470/4/5 473/4/5
f 475/4/5 472/4/5 471/4/5
f 475/6/5 471/6/5 474/6/5
f 476/4/5 472/4/5 475/4/5
f 477/6/5 475/6/5 474/6/5
f 478/6/5 475/6/5 477/6/5
f 481/4/5 480/4/5 479/4/5
f 482/4/5 480/4/5 481/4/5
f 485/4/5 484/4/5 483/4/5
f 486/4/5 484/4/5 485/4/5
f 492/4/5 488/4/5 487/4/5
f 493/4/5 488/4/5 492/4/5
f 497/6/5 490/6/5 489/6/5
f 498/4/5 491/4/5 490/4/5
f 498/6/5 490/6/5 497/6/5
f 499/6/5 496/6/5 495/6/5
f 499/4/5 495/4/5 494/4/5
f 500/6/5 496/6/5 499/6/5
f 501/4/5 491/4/5 498/4/5
f 502/4/5 491/4/5 501/4/5
f 503/4/5 499/4/5 494/4/5
f 504/4/5 499/4/5 503/4/5
f 509/6/5 506/6/5 505/6/5
f 510/6/5 506/6/5 509/6/5
f 511/6/5 508/6/5 507/6/5
f 512/6/5 508/6/5 511/6/5
f 515/4/5 514/4/5 513/4/5
f 516/4/5 514/4/5 515/4/5
f 519/4/5 518/4/5 517/4/5
f 520/4/5 518/4/5 519/4/5
f 521/6/6 522/6/6 525/6/6
f 525/6/6 522/6/6 526/6/6
f 523/6/6 524/6/6 527/6/6
f 527/6/6 524/6/6 528/6/6
f 529/6/6 530/6/6 533/6/6
f 533/6/6 530/6/6 534/6/6
f 531/6/6 532/6/6 535/6/6
f 535/6/6 532/6/6 536/6/6
f 537/4/6 538/4/6 539/4/6
f 539/4/6 538/4/6 540/4/6
f 539/1/6 540/1/6 541/1/6
f 541/1/6 540/1/6 542/1/6
f 541/4/6 542/4/6 543/4/6
f 543/4/6 542/4/6 544/4/6
f 543/1/6 544/1/6 545/1/6
f 545/1/6 544/1/6 546/1/6
f 545/4/6 546/4/6 547/4/6
f 547/4/6 546/4/6 548/4/6
f 548/4/6 546/4/6 549/4/6
f 549/4/6 546/4/6 550/4/6
f 551/6/6 552/6/6 555/6/6
f 555/6/6 552/6/6 556/6/6
f 553/6/6 554/6/6 557/6/6
f 557/6/6 554/6/6 558/6/6
f 559/4/6 560/4/6 563/4/6
f 560/3/6 561/3/6 564/3/6
f 563/4/6 560/4/6 564/4/6
f 561/4/6 562/4/6 565/4/6
f 564/3/6 561/3/6 565/3/6
f 565/4/6 562/4/6 566/4/6
f 567/4/6 568/4/6 569/4/6
f 569/4/6 568/4/6 570/4/6
f 571/6/6 572/6/6 575/6/6
f 575/6/6 572/6/6 576/6/6
f 573/6/6 574/6/6 577/6/6
f 577/6/6 574/6/6 578/6/6
f 579/4/6 580/4/6 583/4/6
f 583/4/6 580/4/6 584/4/6
f 581/4/6 582/4/6 585/4/6
f 585/4/6 582/4/6 586/4/6
f 587/4/6 588/4/6 591/4/6
f 591/4/6 588/4/6 592/4/6
f 589/4/6 590/4/6 593/4/6
f 593/4/6 590/4/6 594/4/6
f 595/4/6 596/4/6 601/4/6
f 601/4/6 596/4/6 602/4/6
f 596/1/6 597/1/6 603/1/6
f 602/4/6 596/4/6 603/4/6
f 599/4/6 600/4/6 604/4/6
f 598/1/6 599/1/6 604/1/6
f 604/4/6 600/4/6 605/4/6
f 605/4/6 600/4/6 606/4/6
f 603/1/6 597/1/6 608/1/6
f 597/4/6 598/4/6 609/4/6
f 608/1/6 597/1/6 609/1/6
f 598/1/6 604/1/6 610/1/6
f 609/4/6 598/4/6 610/4/6
f 610/1/6 604/1/6 611/1/6
f 607/4/6 608/4/6 614/4/6
f 611/4/6 612/4/6 614/4/6
f 610/4/6 611/4/6 614/4/6
f 609/4/6 610/4/6 614/4/6
f 608/4/6 609/4/6 614/4/6
f 614/4/6 612/4/6 615/4/6
f 613/4/6 614/4/6 617/4/6
f 615/4/6 616/4/6 617/4/6
f 614/4/6 615/4/6 617/4/6
f 617/4/6 616/4/6 618/4/6
f 619/4/6 620/4/6 621/4/6
f 621/4/6 620/4/6 622/4/6
f 623/4/6 624/4/6 628/4/6
f 628/4/6 624/4/6 629/4/6
f 625/4/6 626/4/6 630/4/6
f 630/4/6 626/4/6 631/4/6
f 627/4/6 628/4/6 633/4/6
f 633/4/6 628/4/6 634/4/6
f 631/4/6 632/4/6 635/4/6
f 635/4/6 632/4/6 636/4/6
f 637/4/6 638/4/6 639/4/6
f 639/4/6 638/4/6 640/4/6
f 641/4/6 642/4/6 646/4/6
f 646/4/6 642/4/6 647/4/6
f 643/4/6 644/4/6 648/4/6
f 648/4/6 644/4/6 649/4/6
f 645/4/6 646/4/6 651/4/6
f 651/4/6 646/4/6 652/4/6
f 649/4/6 650/4/6 653/4/6
f 653/4/6 650/4/6 654/4/6
f 655/4/6 656/4/6 659/4/6
f 659/4/6 656/4/6 660/4/6
f 657/4/6 658/4/6 661/4/6
f 661/4/6 658/4/6 662/4/6
