# Blender 3.5.1
# www.blender.org
mtllib WallSpikeTall.mtl
o Base
v 0.800000 1.600000 0.700000
v 0.800000 0.000000 0.700000
v 0.800000 1.600000 0.800000
v 0.800000 0.000000 0.800000
v -0.800000 1.600000 0.700000
v -0.800000 0.000000 0.700000
v -0.800000 1.600000 0.800000
v -0.800000 0.000000 0.800000
vn -0.0000 1.0000 -0.0000
vn -0.0000 -0.0000 1.0000
vn -1.0000 -0.0000 -0.0000
vn -0.0000 -1.0000 -0.0000
vn 1.0000 -0.0000 -0.0000
vn -0.0000 -0.0000 -1.0000
vt 0.625000 0.500000
vt 0.375000 0.500000
vt 0.625000 0.750000
vt 0.375000 0.750000
vt 0.875000 0.500000
vt 0.625000 0.250000
vt 0.125000 0.500000
vt 0.375000 0.250000
vt 0.875000 0.750000
vt 0.625000 1.000000
vt 0.625000 0.000000
vt 0.375000 1.000000
vt 0.375000 0.000000
vt 0.125000 0.750000
s 0
usemtl Material
f 1/1/1 5/5/1 7/9/1 3/3/1
f 4/4/2 3/3/2 7/10/2 8/12/2
f 8/13/3 7/11/3 5/6/3 6/8/3
f 6/7/4 2/2/4 4/4/4 8/14/4
f 2/2/5 1/1/5 3/3/5 4/4/5
f 6/8/6 5/6/6 1/1/6 2/2/6
o Spike1
v 0.400000 0.400000 0.300000
v 0.640000 0.640000 0.700000
v 0.640000 0.160000 0.700000
v 0.160000 0.640000 0.700000
v 0.160000 0.160000 0.700000
v -0.529765 -0.365541 0.493081
vn -0.0000 0.8575 -0.5145
vn -0.0000 -0.0000 1.0000
vn -0.8575 -0.0000 -0.5145
vn -0.0000 -0.8575 -0.5145
vn 0.8575 -0.0000 -0.5145
vt 0.875000 0.500000
vt 0.375000 0.250000
vt 0.375000 0.500000
vt 0.625000 0.500000
vt 0.625000 0.750000
vt 0.375000 0.750000
vt 0.875000 0.750000
vt 0.625000 1.000000
vt 0.625000 0.000000
vt 0.375000 1.000000
vt 0.375000 0.000000
vt 0.125000 0.750000
s 0
usemtl Material
f 9/15/7 12/21/7 10/19/7
f 11/20/8 10/19/8 12/22/8 13/24/8
f 13/25/9 12/23/9 9/16/9
f 9/17/10 11/20/10 13/26/10
f 9/18/11 10/19/11 11/20/11
o Spike1.001
v -0.400000 0.400000 0.300000
v -0.160000 0.640000 0.700000
v -0.160000 0.160000 0.700000
v -0.640000 0.640000 0.700000
v -0.640000 0.160000 0.700000
v -1.329765 -0.365541 0.493081
vn -0.0000 0.8575 -0.5145
vn -0.0000 -0.0000 1.0000
vn -0.8575 -0.0000 -0.5145
vn -0.0000 -0.8575 -0.5145
vn 0.8575 -0.0000 -0.5145
vt 0.875000 0.500000
vt 0.375000 0.250000
vt 0.375000 0.500000
vt 0.625000 0.500000
vt 0.625000 0.750000
vt 0.375000 0.750000
vt 0.875000 0.750000
vt 0.625000 1.000000
vt 0.625000 0.000000
vt 0.375000 1.000000
vt 0.375000 0.000000
vt 0.125000 0.750000
s 0
usemtl Material
f 15/27/12 18/33/12 16/31/12
f 17/32/13 16/31/13 18/34/13 19/36/13
f 19/37/14 18/35/14 15/28/14
f 15/29/15 17/32/15 19/38/15
f 15/30/16 16/31/16 17/32/16
o Spike1.002
v 0.400000 1.200000 0.300000
v 0.640000 1.440000 0.700000
v 0.640000 0.960000 0.700000
v 0.160000 1.440000 0.700000
v 0.160000 0.960000 0.700000
v -0.529765 0.434459 0.493081
vn -0.0000 0.8575 -0.5145
vn -0.0000 -0.0000 1.0000
vn -0.8575 -0.0000 -0.5145
vn -0.0000 -0.8575 -0.5145
vn 0.8575 -0.0000 -0.5145
vt 0.875000 0.500000
vt 0.375000 0.250000
vt 0.375000 0.500000
vt 0.625000 0.500000
vt 0.625000 0.750000
vt 0.375000 0.750000
vt 0.875000 0.750000
vt 0.625000 1.000000
vt 0.625000 0.000000
vt 0.375000 1.000000
vt 0.375000 0.000000
vt 0.125000 0.750000
s 0
usemtl Material
f 21/39/17 24/45/17 22/43/17
f 23/44/18 22/43/18 24/46/18 25/48/18
f 25/49/19 24/47/19 21/40/19
f 21/41/20 23/44/20 25/50/20
f 21/42/21 22/43/21 23/44/21
o Spike1.003
v -0.400000 1.200000 0.300000
v -0.160000 1.440000 0.700000
v -0.160000 0.960000 0.700000
v -0.640000 1.440000 0.700000
v -0.640000 0.960000 0.700000
v -1.329765 0.434459 0.493081
vn -0.0000 0.8575 -0.5145
vn -0.0000 -0.0000 1.0000
vn -0.8575 -0.0000 -0.5145
vn -0.0000 -0.8575 -0.5145
vn 0.8575 -0.0000 -0.5145
vt 0.875000 0.500000
vt 0.375000 0.250000
vt 0.375000 0.500000
vt 0.625000 0.500000
vt 0.625000 0.750000
vt 0.375000 0.750000
vt 0.875000 0.750000
vt 0.625000 1.000000
vt 0.625000 0.000000
vt 0.375000 1.000000
vt 0.375000 0.000000
vt 0.125000 0.750000
s 0
usemtl Material
f 27/51/22 30/57/22 28/55/22
f 29/56/23 28/55/23 30/58/23 31/60/23
f 31/61/24 30/59/24 27/52/24
f 27/53/25 29/56/25 31/62/25
f 27/54/26 28/55/26 29/56/26
