# MagicaVoxel @ Ephtracy

# group
o 

# material
mtllib flowersNoPetals.mtl
usemtl palette

# normals
vn -1 0 0
vn 1 0 0
vn 0 0 1
vn 0 0 -1
vn 0 -1 0
vn 0 1 0

# texcoords
vt 0.787109 0.5
vt 0.970703 0.5

# verts
v -0.4 0 0
v -0.4 0 -0.1
v -0.4 0.1 0.1
v -0.4 0.1 0
v -0.4 0.2 0.1
v -0.4 0.2 0
v -0.4 0.3 0
v -0.4 0.3 -0.1
v -0.4 0.4 0
v -0.4 0.4 -0.1
v 0.2 0 0.5
v 0.2 0 0.4
v 0.2 0 -0.4
v 0.2 0 -0.5
v 0.2 0.1 0.6
v 0.2 0.1 0.5
v 0.2 0.1 -0.3
v 0.2 0.1 -0.4
v 0.2 0.2 0.6
v 0.2 0.2 0.5
v 0.2 0.2 -0.3
v 0.2 0.2 -0.4
v 0.2 0.3 0.5
v 0.2 0.3 0.4
v 0.2 0.3 -0.4
v 0.2 0.3 -0.5
v 0.2 0.4 0.5
v 0.2 0.4 0.4
v 0.2 0.4 -0.4
v 0.2 0.4 -0.5
v -0.3 0 0
v -0.3 0 -0.1
v -0.3 0.1 0.1
v -0.3 0.1 0
v -0.3 0.2 0.1
v -0.3 0.2 0
v -0.3 0.3 0
v -0.3 0.3 -0.1
v -0.3 0.4 0
v -0.3 0.4 -0.1
v 0.3 0 0.5
v 0.3 0 0.4
v 0.3 0 -0.4
v 0.3 0 -0.5
v 0.3 0.1 0.6
v 0.3 0.1 0.5
v 0.3 0.1 -0.3
v 0.3 0.1 -0.4
v 0.3 0.2 0.6
v 0.3 0.2 0.5
v 0.3 0.2 -0.3
v 0.3 0.2 -0.4
v 0.3 0.3 0.5
v 0.3 0.3 0.4
v 0.3 0.3 -0.4
v 0.3 0.3 -0.5
v 0.3 0.4 0.5
v 0.3 0.4 0.4
v 0.3 0.4 -0.4
v 0.3 0.4 -0.5
v 0.2 0.1 0.6
v 0.2 0.2 0.6
v 0.3 0.1 0.6
v 0.3 0.2 0.6
v 0.2 0 0.5
v 0.2 0.1 0.5
v 0.2 0.2 0.5
v 0.2 0.3 0.5
v 0.2 0.4 0.5
v 0.3 0 0.5
v 0.3 0.1 0.5
v 0.3 0.2 0.5
v 0.3 0.3 0.5
v 0.3 0.4 0.5
v -0.4 0.1 0.1
v -0.4 0.2 0.1
v -0.3 0.1 0.1
v -0.3 0.2 0.1
v -0.4 0 0
v -0.4 0.1 0
v -0.4 0.2 0
v -0.4 0.3 0
v -0.4 0.4 0
v -0.3 0 0
v -0.3 0.1 0
v -0.3 0.2 0
v -0.3 0.3 0
v -0.3 0.4 0
v 0.2 0.1 -0.3
v 0.2 0.2 -0.3
v 0.3 0.1 -0.3
v 0.3 0.2 -0.3
v 0.2 0 -0.4
v 0.2 0.1 -0.4
v 0.2 0.2 -0.4
v 0.2 0.3 -0.4
v 0.2 0.4 -0.4
v 0.3 0 -0.4
v 0.3 0.1 -0.4
v 0.3 0.2 -0.4
v 0.3 0.3 -0.4
v 0.3 0.4 -0.4
v 0.2 0 0.4
v 0.2 0.3 0.4
v 0.2 0.4 0.4
v 0.3 0 0.4
v 0.3 0.3 0.4
v 0.3 0.4 0.4
v -0.4 0 -0.1
v -0.4 0.3 -0.1
v -0.4 0.4 -0.1
v -0.3 0 -0.1
v -0.3 0.3 -0.1
v -0.3 0.4 -0.1
v 0.2 0 -0.5
v 0.2 0.3 -0.5
v 0.2 0.4 -0.5
v 0.3 0 -0.5
v 0.3 0.3 -0.5
v 0.3 0.4 -0.5
v 0.2 0 0.5
v 0.3 0 0.5
v 0.2 0 0.4
v 0.3 0 0.4
v -0.4 0 0
v -0.3 0 0
v -0.4 0 -0.1
v -0.3 0 -0.1
v 0.2 0 -0.4
v 0.3 0 -0.4
v 0.2 0 -0.5
v 0.3 0 -0.5
v 0.2 0.1 0.6
v 0.3 0.1 0.6
v 0.2 0.1 0.5
v 0.3 0.1 0.5
v -0.4 0.1 0.1
v -0.3 0.1 0.1
v -0.4 0.1 0
v -0.3 0.1 0
v 0.2 0.1 -0.3
v 0.3 0.1 -0.3
v 0.2 0.1 -0.4
v 0.3 0.1 -0.4
v 0.2 0.2 0.6
v 0.3 0.2 0.6
v 0.2 0.2 0.5
v 0.3 0.2 0.5
v -0.4 0.2 0.1
v -0.3 0.2 0.1
v -0.4 0.2 0
v -0.3 0.2 0
v 0.2 0.2 -0.3
v 0.3 0.2 -0.3
v 0.2 0.2 -0.4
v 0.3 0.2 -0.4
v 0.2 0.4 0.5
v 0.3 0.4 0.5
v 0.2 0.4 0.4
v 0.3 0.4 0.4
v -0.4 0.4 0
v -0.3 0.4 0
v -0.4 0.4 -0.1
v -0.3 0.4 -0.1
v 0.2 0.4 -0.4
v 0.3 0.4 -0.4
v 0.2 0.4 -0.5
v 0.3 0.4 -0.5

# faces
f 4/2/1 2/2/1 1/2/1
f 5/2/1 4/2/1 3/2/1
f 6/2/1 2/2/1 4/2/1
f 6/2/1 4/2/1 5/2/1
f 7/2/1 2/2/1 6/2/1
f 8/2/1 2/2/1 7/2/1
f 9/1/1 8/1/1 7/1/1
f 10/1/1 8/1/1 9/1/1
f 16/2/1 12/2/1 11/2/1
f 18/2/1 14/2/1 13/2/1
f 19/2/1 16/2/1 15/2/1
f 20/2/1 12/2/1 16/2/1
f 20/2/1 16/2/1 19/2/1
f 21/2/1 18/2/1 17/2/1
f 22/2/1 14/2/1 18/2/1
f 22/2/1 18/2/1 21/2/1
f 23/2/1 12/2/1 20/2/1
f 24/2/1 12/2/1 23/2/1
f 25/2/1 14/2/1 22/2/1
f 26/2/1 14/2/1 25/2/1
f 27/1/1 24/1/1 23/1/1
f 28/1/1 24/1/1 27/1/1
f 29/1/1 26/1/1 25/1/1
f 30/1/1 26/1/1 29/1/1
f 31/2/2 32/2/2 34/2/2
f 33/2/2 34/2/2 35/2/2
f 34/2/2 32/2/2 36/2/2
f 35/2/2 34/2/2 36/2/2
f 36/2/2 32/2/2 37/2/2
f 37/2/2 32/2/2 38/2/2
f 37/1/2 38/1/2 39/1/2
f 39/1/2 38/1/2 40/1/2
f 41/2/2 42/2/2 46/2/2
f 43/2/2 44/2/2 48/2/2
f 45/2/2 46/2/2 49/2/2
f 46/2/2 42/2/2 50/2/2
f 49/2/2 46/2/2 50/2/2
f 47/2/2 48/2/2 51/2/2
f 48/2/2 44/2/2 52/2/2
f 51/2/2 48/2/2 52/2/2
f 50/2/2 42/2/2 53/2/2
f 53/2/2 42/2/2 54/2/2
f 52/2/2 44/2/2 55/2/2
f 55/2/2 44/2/2 56/2/2
f 53/1/2 54/1/2 57/1/2
f 57/1/2 54/1/2 58/1/2
f 55/1/2 56/1/2 59/1/2
f 59/1/2 56/1/2 60/1/2
f 63/2/3 62/2/3 61/2/3
f 64/2/3 62/2/3 63/2/3
f 70/2/3 66/2/3 65/2/3
f 71/2/3 66/2/3 70/2/3
f 72/2/3 68/2/3 67/2/3
f 73/1/3 69/1/3 68/1/3
f 73/2/3 68/2/3 72/2/3
f 74/1/3 69/1/3 73/1/3
f 77/2/3 76/2/3 75/2/3
f 78/2/3 76/2/3 77/2/3
f 84/2/3 80/2/3 79/2/3
f 85/2/3 80/2/3 84/2/3
f 86/2/3 82/2/3 81/2/3
f 87/1/3 83/1/3 82/1/3
f 87/2/3 82/2/3 86/2/3
f 88/1/3 83/1/3 87/1/3
f 91/2/3 90/2/3 89/2/3
f 92/2/3 90/2/3 91/2/3
f 98/2/3 94/2/3 93/2/3
f 99/2/3 94/2/3 98/2/3
f 100/2/3 96/2/3 95/2/3
f 101/1/3 97/1/3 96/1/3
f 101/2/3 96/2/3 100/2/3
f 102/1/3 97/1/3 101/1/3
f 103/2/4 104/2/4 106/2/4
f 104/1/4 105/1/4 107/1/4
f 106/2/4 104/2/4 107/2/4
f 107/1/4 105/1/4 108/1/4
f 109/2/4 110/2/4 112/2/4
f 110/1/4 111/1/4 113/1/4
f 112/2/4 110/2/4 113/2/4
f 113/1/4 111/1/4 114/1/4
f 115/2/4 116/2/4 118/2/4
f 116/1/4 117/1/4 119/1/4
f 118/2/4 116/2/4 119/2/4
f 119/1/4 117/1/4 120/1/4
f 123/2/5 122/2/5 121/2/5
f 124/2/5 122/2/5 123/2/5
f 127/2/5 126/2/5 125/2/5
f 128/2/5 126/2/5 127/2/5
f 131/2/5 130/2/5 129/2/5
f 132/2/5 130/2/5 131/2/5
f 135/2/5 134/2/5 133/2/5
f 136/2/5 134/2/5 135/2/5
f 139/2/5 138/2/5 137/2/5
f 140/2/5 138/2/5 139/2/5
f 143/2/5 142/2/5 141/2/5
f 144/2/5 142/2/5 143/2/5
f 145/2/6 146/2/6 147/2/6
f 147/2/6 146/2/6 148/2/6
f 149/2/6 150/2/6 151/2/6
f 151/2/6 150/2/6 152/2/6
f 153/2/6 154/2/6 155/2/6
f 155/2/6 154/2/6 156/2/6
f 157/1/6 158/1/6 159/1/6
f 159/1/6 158/1/6 160/1/6
f 161/1/6 162/1/6 163/1/6
f 163/1/6 162/1/6 164/1/6
f 165/1/6 166/1/6 167/1/6
f 167/1/6 166/1/6 168/1/6
