# Blender 3.5.1
# www.blender.org
mtllib DartsBlock.mtl
o Untitled.001
v 1.000000 12.004389 -1.000000
v 0.500000 12.739225 0.670495
v 0.500000 12.739225 -0.000014
v 0.500000 12.739225 -0.670496
v 0.500000 13.409720 -0.000000
v 0.500000 12.068729 -0.000000
v 1.000000 14.004389 -1.000000
v -1.000000 12.004391 -1.000000
v 0.500000 12.333895 -0.265165
v 0.500000 13.004390 0.405330
v 0.500000 13.004390 -0.265179
v 0.500000 13.674885 -0.265166
v 0.500000 13.004390 -0.935661
v -0.999999 14.004391 -1.000000
v 1.000000 12.004389 1.000000
v 0.500000 13.004390 0.265151
v 0.500000 13.674885 0.265165
v 0.500000 13.004390 -0.405331
v 0.500000 12.333895 0.265165
v 0.500000 13.004390 0.935660
v 1.000000 14.004389 1.000000
v -1.000000 12.004391 1.000000
v 0.500000 13.269555 -0.000014
v 0.500000 13.940050 -0.000000
v 0.500000 13.269555 -0.670496
v 0.500000 12.599060 -0.000000
v 0.500000 13.269555 0.670495
v -0.999999 14.004391 1.000000
v -1.000000 12.985527 0.424193
v -1.000000 12.739225 0.670494
v -1.000000 13.004391 0.405329
v -0.999999 13.269555 0.670494
v -1.000000 13.004391 0.935660
v -1.000000 12.068730 -0.000001
v -1.000000 12.333895 -0.265166
v -1.000000 12.580196 -0.018864
v -1.000000 12.599060 -0.000001
v -1.000000 12.333895 0.265164
v -0.999999 12.739225 -0.670496
v -0.999999 13.004391 -0.935661
v -0.999999 13.269555 -0.670496
v -0.999999 13.023253 -0.424194
v -0.999999 13.004391 -0.405331
v -0.999999 13.409720 -0.000001
v -0.999999 13.674886 -0.265166
v -0.999999 13.940050 -0.000001
v -0.999999 13.674886 0.265164
v -0.999999 13.428584 0.018863
v -0.999999 12.985527 -0.246316
v -1.000000 12.739225 -0.000014
v -0.999999 13.004391 -0.265179
v -0.999999 13.136980 -0.132589
v -0.999999 13.250692 -0.018878
v -0.999999 13.269555 -0.000014
v -0.999999 13.023254 0.246287
v -0.999999 13.004391 0.265151
v -1.000000 12.758089 0.018849
v -0.999999 12.871815 0.132576
vn -0.0000 -0.0000 -1.0000
vn -0.0000 -0.0000 1.0000
vn -0.0000 -1.0000 -0.0000
vn -0.0000 1.0000 -0.0000
vn 1.0000 -0.0000 -0.0000
vn -1.0000 -0.0000 -0.0000
vn -0.0000 0.7071 0.7071
vn -0.0000 -0.7071 0.7071
vn -0.0000 -0.7071 -0.7071
vn -0.0000 0.7071 -0.7071
vt 0.500000 0.250000
vt 0.250000 0.250000
vt 0.250000 0.125000
vt 0.375000 0.000000
vt 0.375000 1.000000
vt 0.125000 0.750000
vt 0.375000 0.000000
vt 0.375000 1.000000
vt 0.125000 0.750000
vt 0.375000 0.000000
vt 0.375000 1.000000
vt 0.125000 0.750000
vt 0.375000 0.000000
vt 0.375000 1.000000
vt 0.125000 0.750000
vt 0.375000 0.000000
vt 0.375000 1.000000
vt 0.125000 0.750000
vt 0.250000 0.250000
vt 0.500000 0.125000
vt 0.250000 0.117188
vt 0.500000 0.125000
vt 0.500000 0.250000
vt 0.259037 0.120480
vt 0.375000 0.250000
vt 0.125000 0.500000
vt 0.375000 0.250000
vt 0.125000 0.500000
vt 0.375000 0.250000
vt 0.125000 0.500000
vt 0.375000 0.250000
vt 0.125000 0.500000
vt 0.375000 0.250000
vt 0.125000 0.500000
vt 0.250000 0.125000
vt 0.500000 0.250000
vt 0.490963 0.120480
vt 0.500000 0.125000
vt 0.250000 0.125000
vt 0.265625 0.125000
vt 0.375000 0.750000
vt 0.125000 0.500000
vt 0.375000 0.750000
vt 0.125000 0.500000
vt 0.375000 0.750000
vt 0.125000 0.500000
vt 0.375000 0.750000
vt 0.125000 0.500000
vt 0.375000 0.750000
vt 0.125000 0.500000
vt 0.500000 0.250000
vt 0.250000 0.125000
vt 0.265625 0.117188
vt 0.250000 0.125000
vt 0.500000 0.125000
vt 0.259037 0.004517
vt 0.375000 0.500000
vt 0.375000 0.500000
vt 0.375000 0.500000
vt 0.375000 0.500000
vt 0.375000 0.500000
vt 0.250000 0.250000
vt 0.490963 0.004517
vt 0.372813 0.037903
vt 0.607215 0.232215
vt 0.344251 0.023622
vt 0.607215 0.000000
vt 0.375000 1.000000
vt 0.375000 0.038997
vt 0.607215 0.250000
vt 0.375000 0.250000
vt 0.405749 0.023622
vt 0.375000 0.500000
vt 0.607215 0.500000
vt 0.375000 0.008248
vt 0.607215 0.750000
vt 0.375000 0.750000
vt 0.266498 0.062498
vt 0.607215 0.000000
vt 0.375000 1.000000
vt 0.297247 0.077873
vt 0.607215 0.250000
vt 0.375000 0.250000
vt 0.325809 0.063592
vt 0.375000 0.482215
vt 0.327997 0.062498
vt 0.375000 0.500000
vt 0.607215 0.500000
vt 0.297247 0.047124
vt 0.607215 0.750000
vt 0.375000 0.750000
vt 0.344251 0.101375
vt 0.607215 0.000000
vt 0.375000 1.000000
vt 0.375000 0.116749
vt 0.607215 0.250000
vt 0.375000 0.250000
vt 0.405749 0.101375
vt 0.375000 0.500000
vt 0.607215 0.500000
vt 0.377187 0.087094
vt 0.607215 0.732215
vt 0.375000 0.086000
vt 0.607215 0.750000
vt 0.375000 0.750000
vt 0.422003 0.062498
vt 0.607215 0.000000
vt 0.375000 1.000000
vt 0.452753 0.077873
vt 0.607215 0.250000
vt 0.375000 0.250000
vt 0.483502 0.062498
vt 0.375000 0.500000
vt 0.607215 0.500000
vt 0.452753 0.047124
vt 0.607215 0.750000
vt 0.375000 0.750000
vt 0.424191 0.061405
vt 0.375000 0.982215
vt 0.372813 0.076780
vt 0.607215 0.232215
vt 0.344251 0.062499
vt 0.607215 0.000000
vt 0.375000 1.000000
vt 0.375000 0.077874
vt 0.607215 0.250000
vt 0.375000 0.250000
vt 0.390375 0.070186
vt 0.375000 0.375007
vt 0.403562 0.063593
vt 0.375000 0.482215
vt 0.405749 0.062499
vt 0.375000 0.500000
vt 0.607215 0.500000
vt 0.377187 0.048218
vt 0.607215 0.732215
vt 0.375000 0.047125
vt 0.607215 0.750000
vt 0.375000 0.750000
vt 0.346438 0.061406
vt 0.375000 0.982215
vt 0.359626 0.054812
vt 0.375000 0.874993
s 0
usemtl palette
f 8/22/1 7/19/1 1/1/1
f 7/19/1 8/22/1 14/35/1
f 22/54/2 15/38/2 21/51/2
f 21/51/2 28/62/2 22/54/2
f 1/2/3 15/39/3 8/23/3
f 22/55/3 8/23/3 15/39/3
f 7/20/4 14/36/4 21/52/4
f 28/62/4 21/52/4 14/36/4
f 1/3/5 7/21/5 15/40/5
f 21/53/5 15/40/5 7/21/5
f 58/142/6 57/140/6 37/86/6 38/89/6 34/78/6 35/81/6 36/84/6 50/122/6 49/120/6 43/103/6 39/92/6 40/95/6 41/98/6 42/101/6 51/125/6 52/128/6 14/37/6 8/24/6 22/56/6
f 36/84/6 37/86/6 57/140/6 50/122/6
f 51/125/6 42/101/6 43/103/6 49/120/6
f 44/106/6 53/130/6 54/132/6 48/118/6
f 52/128/6 53/130/6 44/106/6 45/109/6 46/112/6 47/115/6 48/118/6 54/132/6 55/135/6 31/69/6 32/72/6 33/75/6 30/66/6 29/64/6 56/137/6 58/142/6 22/56/6 28/63/6 14/37/6
f 29/64/6 31/69/6 55/135/6 56/137/6
f 30/67/7 2/4/7 10/27/7 31/70/7 29/65/7
f 31/71/8 10/27/8 27/61/8 32/73/8
f 27/61/9 20/49/9 33/76/9 32/74/9
f 20/49/10 2/5/10 30/68/10 33/77/10
f 10/28/6 2/6/6 20/50/6 27/61/6
f 34/79/7 6/16/7 9/25/7 35/82/7
f 9/25/8 26/60/8 37/87/8 36/85/8 35/83/8
f 26/60/9 19/47/9 38/90/9 37/88/9
f 19/47/10 6/17/10 34/80/10 38/91/10
f 9/26/6 6/18/6 19/48/6 26/60/6
f 39/93/7 4/10/7 13/33/7 40/96/7
f 40/97/8 13/33/8 25/59/8 41/99/8
f 25/59/9 18/45/9 43/104/9 42/102/9 41/100/9
f 18/45/10 4/11/10 39/94/10 43/105/10
f 13/34/6 4/12/6 18/46/6 25/59/6
f 44/107/7 5/13/7 12/31/7 45/110/7
f 45/111/8 12/31/8 24/58/8 46/113/8
f 24/58/9 17/43/9 47/116/9 46/114/9
f 47/117/10 17/43/10 5/14/10 44/108/10 48/119/10
f 12/32/6 5/15/6 17/44/6 24/58/6
f 50/123/7 3/7/7 11/29/7 51/126/7 49/121/7
f 51/127/8 11/29/8 23/57/8 54/133/8 53/131/8 52/129/8
f 23/57/9 16/41/9 56/138/9 55/136/9 54/134/9
f 16/41/10 3/8/10 50/124/10 57/141/10 58/143/10 56/139/10
f 11/30/6 3/9/6 16/42/6 23/57/6
