# Blender 3.5.1
# www.blender.org
mtllib DartsBlock.mtl
o Untitled.001
v 1.000000 -0.000000 -1.000000
v 0.500000 0.734835 0.670495
v 0.500000 0.734835 -0.000014
v 0.500000 0.734835 -0.670496
v 0.500000 1.405330 -0.000000
v 0.500000 0.064340 -0.000000
v 1.000000 2.000000 -1.000000
v -1.000000 0.000001 -1.000000
v 0.500000 0.329505 -0.265165
v 0.500000 1.000000 0.405330
v 0.500000 1.000000 -0.265179
v 0.500000 1.670495 -0.265166
v 0.500000 1.000000 -0.935661
v -0.999999 2.000001 -1.000000
v 1.000000 -0.000001 1.000000
v 0.500000 1.000000 0.265151
v 0.500000 1.670495 0.265165
v 0.500000 1.000000 -0.405331
v 0.500000 0.329505 0.265165
v 0.500000 1.000000 0.935660
v 1.000000 1.999999 1.000000
v -1.000000 0.000001 1.000000
v 0.500000 1.265165 -0.000014
v 0.500000 1.935660 -0.000000
v 0.500000 1.265165 -0.670496
v 0.500000 0.594670 -0.000000
v 0.500000 1.265165 0.670495
v -0.999999 2.000001 1.000000
v -1.000000 0.981137 0.424193
v -1.000000 0.734835 0.670494
v -1.000000 1.000001 0.405329
v -0.999999 1.265166 0.670494
v -1.000000 1.000001 0.935660
v -1.000000 0.064340 -0.000001
v -1.000000 0.329505 -0.265166
v -1.000000 0.575807 -0.018864
v -1.000000 0.594670 -0.000001
v -1.000000 0.329505 0.265164
v -0.999999 0.734835 -0.670496
v -0.999999 1.000001 -0.935661
v -0.999999 1.265166 -0.670496
v -0.999999 1.018864 -0.424194
v -0.999999 1.000001 -0.405331
v -0.999999 1.405331 -0.000001
v -0.999999 1.670496 -0.265166
v -0.999999 1.935661 -0.000001
v -0.999999 1.670496 0.265164
v -0.999999 1.424194 0.018863
v -0.999999 0.981137 -0.246316
v -1.000000 0.734835 -0.000014
v -0.999999 1.000001 -0.265179
v -0.999999 1.132591 -0.132589
v -0.999999 1.246302 -0.018878
v -0.999999 1.265166 -0.000014
v -0.999999 1.018864 0.246287
v -0.999999 1.000001 0.265151
v -1.000000 0.753699 0.018849
v -0.999999 0.867425 0.132576
vn -0.0000 -0.0000 -1.0000
vn -0.0000 -0.0000 1.0000
vn -0.0000 -1.0000 -0.0000
vn -0.0000 1.0000 -0.0000
vn 1.0000 -0.0000 -0.0000
vn -1.0000 -0.0000 -0.0000
vn -0.0000 0.7071 0.7071
vn -0.0000 -0.7071 0.7071
vn -0.0000 -0.7071 -0.7071
vn -0.0000 0.7071 -0.7071
vt 0.625000 0.000000
vt 0.000100 0.999900
vt 0.554688 0.570312
vt 0.375000 0.000000
vt 0.375000 1.000000
vt 0.125000 0.750000
vt 0.375000 0.000000
vt 0.375000 1.000000
vt 0.125000 0.750000
vt 0.375000 0.000000
vt 0.375000 1.000000
vt 0.125000 0.750000
vt 0.375000 0.000000
vt 0.375000 1.000000
vt 0.125000 0.750000
vt 0.375000 0.000000
vt 0.375000 1.000000
vt 0.125000 0.750000
vt 0.750000 0.000000
vt 0.625000 0.000000
vt 0.554688 0.429688
vt 0.625000 0.875000
vt 0.999900 0.999900
vt 0.375000 0.875000
vt 0.375000 0.250000
vt 0.125000 0.500000
vt 0.375000 0.250000
vt 0.125000 0.500000
vt 0.375000 0.250000
vt 0.125000 0.500000
vt 0.375000 0.250000
vt 0.125000 0.500000
vt 0.375000 0.250000
vt 0.125000 0.500000
vt 0.750000 0.875000
vt 0.625000 0.875000
vt 0.375000 1.000000
vt 0.625000 0.000000
vt 0.000100 0.000100
vt 0.695312 0.570312
vt 0.375000 0.750000
vt 0.125000 0.500000
vt 0.375000 0.750000
vt 0.125000 0.500000
vt 0.375000 0.750000
vt 0.125000 0.500000
vt 0.375000 0.750000
vt 0.125000 0.500000
vt 0.375000 0.750000
vt 0.125000 0.500000
vt 0.750000 0.000000
vt 0.500000 0.000000
vt 0.695312 0.429688
vt 0.625000 0.875000
vt 0.999900 0.000100
vt 0.500000 0.875000
vt 0.375000 0.500000
vt 0.375000 0.500000
vt 0.375000 0.500000
vt 0.375000 0.500000
vt 0.375000 0.500000
vt 0.750000 0.875000
vt 0.500000 0.875000
vt 0.500000 1.000000
vt 0.464012 0.936321
vt 0.607215 0.232215
vt 0.479406 0.920927
vt 0.607215 0.000000
vt 0.375000 1.000000
vt 0.462833 0.937500
vt 0.607215 0.250000
vt 0.375000 0.250000
vt 0.479406 0.954073
vt 0.375000 0.500000
vt 0.607215 0.500000
vt 0.495979 0.937500
vt 0.607215 0.750000
vt 0.375000 0.750000
vt 0.437500 0.879021
vt 0.607215 0.000000
vt 0.375000 1.000000
vt 0.420927 0.895594
vt 0.607215 0.250000
vt 0.375000 0.250000
vt 0.436321 0.910988
vt 0.375000 0.482215
vt 0.437500 0.912167
vt 0.375000 0.500000
vt 0.607215 0.500000
vt 0.454073 0.895594
vt 0.607215 0.750000
vt 0.375000 0.750000
vt 0.395594 0.920927
vt 0.607215 0.000000
vt 0.375000 1.000000
vt 0.379021 0.937500
vt 0.607215 0.250000
vt 0.375000 0.250000
vt 0.395594 0.954073
vt 0.375000 0.500000
vt 0.607215 0.500000
vt 0.410988 0.938679
vt 0.607215 0.732215
vt 0.412167 0.937500
vt 0.607215 0.750000
vt 0.375000 0.750000
vt 0.437500 0.962833
vt 0.607215 0.000000
vt 0.375000 1.000000
vt 0.420927 0.979406
vt 0.607215 0.250000
vt 0.375000 0.250000
vt 0.437500 0.995979
vt 0.375000 0.500000
vt 0.607215 0.500000
vt 0.454073 0.979406
vt 0.607215 0.750000
vt 0.375000 0.750000
vt 0.438679 0.964012
vt 0.375000 0.982215
vt 0.422105 0.936321
vt 0.607215 0.232215
vt 0.437499 0.920927
vt 0.607215 0.000000
vt 0.375000 1.000000
vt 0.420926 0.937500
vt 0.607215 0.250000
vt 0.375000 0.250000
vt 0.429213 0.945787
vt 0.375000 0.375007
vt 0.436320 0.952894
vt 0.375000 0.482215
vt 0.437499 0.954073
vt 0.375000 0.500000
vt 0.607215 0.500000
vt 0.452893 0.938679
vt 0.607215 0.732215
vt 0.454072 0.937500
vt 0.607215 0.750000
vt 0.375000 0.750000
vt 0.438678 0.922106
vt 0.375000 0.982215
vt 0.445786 0.929214
vt 0.375000 0.874993
s 0
usemtl palette
f 8/22/1 7/19/1 1/1/1
f 7/19/1 8/22/1 14/35/1
f 22/54/2 15/38/2 21/51/2
f 21/51/2 28/62/2 22/54/2
f 1/2/3 15/39/3 8/23/3
f 22/55/3 8/23/3 15/39/3
f 7/20/4 14/36/4 21/52/4
f 28/63/4 21/52/4 14/36/4
f 1/3/5 7/21/5 15/40/5
f 21/53/5 15/40/5 7/21/5
f 58/143/6 57/141/6 37/87/6 38/90/6 34/79/6 35/82/6 36/85/6 50/123/6 49/121/6 43/104/6 39/93/6 40/96/6 41/99/6 42/102/6 51/126/6 52/129/6 14/37/6 8/24/6 22/56/6
f 36/85/6 37/87/6 57/141/6 50/123/6
f 51/126/6 42/102/6 43/104/6 49/121/6
f 44/107/6 53/131/6 54/133/6 48/119/6
f 52/129/6 53/131/6 44/107/6 45/110/6 46/113/6 47/116/6 48/119/6 54/133/6 55/136/6 31/70/6 32/73/6 33/76/6 30/67/6 29/65/6 56/138/6 58/143/6 22/56/6 28/64/6 14/37/6
f 29/65/6 31/70/6 55/136/6 56/138/6
f 30/68/7 2/4/7 10/27/7 31/71/7 29/66/7
f 31/72/8 10/27/8 27/61/8 32/74/8
f 27/61/9 20/49/9 33/77/9 32/75/9
f 20/49/10 2/5/10 30/69/10 33/78/10
f 10/28/6 2/6/6 20/50/6 27/61/6
f 34/80/7 6/16/7 9/25/7 35/83/7
f 9/25/8 26/60/8 37/88/8 36/86/8 35/84/8
f 26/60/9 19/47/9 38/91/9 37/89/9
f 19/47/10 6/17/10 34/81/10 38/92/10
f 9/26/6 6/18/6 19/48/6 26/60/6
f 39/94/7 4/10/7 13/33/7 40/97/7
f 40/98/8 13/33/8 25/59/8 41/100/8
f 25/59/9 18/45/9 43/105/9 42/103/9 41/101/9
f 18/45/10 4/11/10 39/95/10 43/106/10
f 13/34/6 4/12/6 18/46/6 25/59/6
f 44/108/7 5/13/7 12/31/7 45/111/7
f 45/112/8 12/31/8 24/58/8 46/114/8
f 24/58/9 17/43/9 47/117/9 46/115/9
f 47/118/10 17/43/10 5/14/10 44/109/10 48/120/10
f 12/32/6 5/15/6 17/44/6 24/58/6
f 50/124/7 3/7/7 11/29/7 51/127/7 49/122/7
f 51/128/8 11/29/8 23/57/8 54/134/8 53/132/8 52/130/8
f 23/57/9 16/41/9 56/139/9 55/137/9 54/135/9
f 16/41/10 3/8/10 50/125/10 57/142/10 58/144/10 56/140/10
f 11/30/6 3/9/6 16/42/6 23/57/6
