# Blender 3.5.1
# www.blender.org
mtllib GroundSpike.mtl
o Base
v 0.800000 0.100000 0.800000
v 0.800000 0.100000 -0.800000
v 0.800000 0.000000 0.800000
v 0.800000 -0.000000 -0.800000
v -0.800000 0.100000 0.800000
v -0.800000 0.100000 -0.800000
v -0.800000 0.000000 0.800000
v -0.800000 -0.000000 -0.800000
vn -0.0000 -0.0000 1.0000
vn -0.0000 -1.0000 -0.0000
vn -1.0000 -0.0000 -0.0000
vn -0.0000 -0.0000 -1.0000
vn 1.0000 -0.0000 -0.0000
vn -0.0000 1.0000 -0.0000
vt 0.500000 1.000000
vt 0.500000 0.500000
vt 0.500000 1.000000
vt 0.531250 1.000000
vt 0.500000 0.500000
vt 0.531250 0.500000
vt 0.500000 1.000000
vt 0.531250 1.000000
vt 0.500000 0.500000
vt -0.000000 0.500000
vt 0.500000 1.000000
vt 0.500000 0.500000
vt -0.000000 1.000000
vt -0.000000 0.500000
vt 0.531250 0.500000
vt -0.000000 1.000000
vt 0.531250 1.000000
vt 0.531250 0.500000
s 0
usemtl Material
f 1/1/1 5/9/1 7/15/1 3/4/1
f 4/7/2 3/5/2 7/14/2 8/16/2
f 8/17/3 7/15/3 5/9/3 6/11/3
f 6/12/4 2/3/4 4/8/4 8/18/4
f 2/3/5 1/2/5 3/6/5 4/8/5
f 6/13/6 5/10/6 1/2/6 2/3/6
o Spike1
v 0.390000 0.808000 -0.400000
v 0.643082 0.098000 -0.038562
v 0.751438 0.098000 -0.653082
v 0.028562 0.098000 -0.146918
v 0.136918 0.098000 -0.761438
vn -0.1590 0.4023 0.9016
vn -0.9016 0.4023 -0.1590
vn 0.1590 0.4023 -0.9016
vn 0.9016 0.4023 0.1590
vt 0.015625 0.187500
vt 0.031250 0.000000
vt -0.000000 0.000000
vt 0.031250 0.000000
vt -0.000000 0.000000
vt 0.031250 0.000000
vt 0.000000 0.000000
s 0
usemtl Material
f 9/19/7 12/23/7 10/20/7
f 13/24/8 12/23/8 9/19/8
f 9/19/9 11/22/9 13/25/9
f 9/19/10 10/21/10 11/22/10
o Spike1.001
v -0.400000 0.600000 -0.400000
v -0.072154 0.100000 -0.312154
v -0.312154 0.100000 -0.727846
v -0.487846 0.100000 -0.072154
v -0.727846 0.100000 -0.487846
vn 0.4508 0.4327 0.7807
vn -0.7807 0.4327 0.4508
vn -0.4508 0.4327 -0.7807
vn 0.7807 0.4327 -0.4508
vt 0.015625 0.187500
vt 0.031250 0.000000
vt -0.000000 0.000000
vt 0.031250 0.000000
vt -0.000000 0.000000
vt 0.031250 0.000000
vt 0.000000 0.000000
s 0
usemtl Material
f 14/26/11 17/30/11 15/27/11
f 18/31/12 17/30/12 14/26/12
f 14/26/13 16/29/13 18/32/13
f 14/26/14 15/28/14 16/29/14
o Spike1.002
v 0.400000 0.600000 0.400000
v 0.312154 0.100000 0.727846
v 0.727846 0.100000 0.487846
v 0.072154 0.100000 0.312154
v 0.487846 0.100000 0.072154
vn -0.7807 0.4327 0.4508
vn -0.4508 0.4327 -0.7807
vn 0.7807 0.4327 -0.4508
vn 0.4508 0.4327 0.7807
vt 0.015625 0.187500
vt 0.031250 0.000000
vt 0.000000 0.000000
vt 0.031250 -0.000000
vt 0.000000 0.000000
vt 0.031250 -0.000000
vt 0.000000 -0.000000
s 0
usemtl Material
f 19/33/15 22/37/15 20/34/15
f 23/38/16 22/37/16 19/33/16
f 19/33/17 21/36/17 23/39/17
f 19/33/18 20/35/18 21/36/18
o Spike1.003
v -0.400000 0.801600 0.400000
v -0.135238 0.049600 0.778120
v -0.021880 0.049600 0.135237
v -0.778120 0.049600 0.664763
v -0.664763 0.049600 0.021880
vn -0.1593 0.3982 0.9034
vn -0.9034 0.3982 -0.1593
vn 0.1593 0.3982 -0.9034
vn 0.9034 0.3982 0.1593
vt 0.015625 0.187500
vt 0.031250 0.000000
vt 0.000000 0.000000
vt 0.031250 0.000000
vt 0.000000 0.000000
vt 0.031250 0.000000
vt 0.000000 0.000000
s 0
usemtl Material
f 24/40/19 27/44/19 25/41/19
f 28/45/20 27/44/20 24/40/20
f 24/40/21 26/43/21 28/46/21
f 24/40/22 25/42/22 26/43/22
