# Blender 3.5.1
# www.blender.org
mtllib GroundMovingSpikes.mtl
o Spike1
v 0.450000 1.600000 -0.450000
v 0.600000 0.000000 -0.300000
v 0.600000 0.000000 -0.600000
v 0.300000 0.000000 -0.300000
v 0.300000 0.000000 -0.600000
vn -0.0000 0.0933 0.9956
vn -0.9956 0.0933 -0.0000
vn -0.0000 0.0933 -0.9956
vn 0.9956 0.0933 -0.0000
vt 0.015625 0.187500
vt 0.031250 0.000000
vt -0.000000 0.000000
vt 0.031250 0.000000
vt -0.000000 0.000000
vt 0.031250 0.000000
vt 0.000000 0.000000
s 0
usemtl Material
f 1/1/1 4/5/1 2/2/1
f 5/6/2 4/5/2 1/1/2
f 1/1/3 3/4/3 5/7/3
f 1/1/4 2/3/4 3/4/4
o Spike1.004
v 0.450000 1.600000 0.450000
v 0.600000 0.000000 0.600000
v 0.600000 0.000000 0.300000
v 0.300000 0.000000 0.600000
v 0.300000 0.000000 0.300000
vn -0.0000 0.0933 0.9956
vn -0.9956 0.0933 -0.0000
vn -0.0000 0.0933 -0.9956
vn 0.9956 0.0933 -0.0000
vt 0.015625 0.187500
vt 0.031250 0.000000
vt -0.000000 0.000000
vt 0.031250 0.000000
vt -0.000000 0.000000
vt 0.031250 0.000000
vt 0.000000 0.000000
s 0
usemtl Material
f 6/8/5 9/12/5 7/9/5
f 10/13/6 9/12/6 6/8/6
f 6/8/7 8/11/7 10/14/7
f 6/8/8 7/10/8 8/11/8
o Spike1.005
v -0.450000 1.600000 0.450000
v -0.300000 0.000000 0.600000
v -0.300000 0.000000 0.300000
v -0.600000 0.000000 0.600000
v -0.600000 0.000000 0.300000
vn -0.0000 0.0933 0.9956
vn -0.9956 0.0933 -0.0000
vn -0.0000 0.0933 -0.9956
vn 0.9956 0.0933 -0.0000
vt 0.015625 0.187500
vt 0.031250 0.000000
vt -0.000000 0.000000
vt 0.031250 0.000000
vt -0.000000 0.000000
vt 0.031250 0.000000
vt 0.000000 0.000000
s 0
usemtl Material
f 11/15/9 14/19/9 12/16/9
f 15/20/10 14/19/10 11/15/10
f 11/15/11 13/18/11 15/21/11
f 11/15/12 12/17/12 13/18/12
o Spike1.006
v -0.450000 1.600000 -0.450000
v -0.300000 0.000000 -0.300000
v -0.300000 0.000000 -0.600000
v -0.600000 0.000000 -0.300000
v -0.600000 0.000000 -0.600000
vn -0.0000 0.0933 0.9956
vn -0.9956 0.0933 -0.0000
vn -0.0000 0.0933 -0.9956
vn 0.9956 0.0933 -0.0000
vt 0.015625 0.187500
vt 0.031250 0.000000
vt -0.000000 0.000000
vt 0.031250 0.000000
vt -0.000000 0.000000
vt 0.031250 0.000000
vt 0.000000 0.000000
s 0
usemtl Material
f 16/22/13 19/26/13 17/23/13
f 20/27/14 19/26/14 16/22/14
f 16/22/15 18/25/15 20/28/15
f 16/22/16 17/24/16 18/25/16
o Spike1.001
v -0.000000 1.599008 0.000000
v 0.249600 0.001248 0.249600
v 0.249600 0.001248 -0.249600
v -0.249600 0.001248 0.249600
v -0.249600 0.001248 -0.249600
vn -0.0000 0.1543 0.9880
vn -0.9880 0.1543 -0.0000
vn -0.0000 0.1543 -0.9880
vn 0.9880 0.1543 -0.0000
vt 0.015625 0.187500
vt 0.031250 0.000000
vt -0.000000 0.000000
vt 0.031250 0.000000
vt -0.000000 0.000000
vt 0.031250 0.000000
vt 0.000000 0.000000
s 0
usemtl Material
f 21/29/17 24/33/17 22/30/17
f 25/34/18 24/33/18 21/29/18
f 21/29/19 23/32/19 25/35/19
f 21/29/20 22/31/20 23/32/20
