# Blender 3.5.1
# www.blender.org
mtllib RotatoryHammer.mtl
o Cabeza
v 0.800000 10.799997 -0.800000
v 0.800000 9.599998 -0.800000
v 0.800000 10.799997 0.800000
v 0.800000 9.599998 0.800000
v -0.800000 10.799997 -0.800000
v -0.800000 9.599998 -0.800000
v -0.800000 10.799997 0.800000
v -0.800000 9.599998 0.800000
vn -0.0000 1.0000 -0.0000
vn -0.0000 -0.0000 1.0000
vn -1.0000 -0.0000 -0.0000
vn -0.0000 -1.0000 -0.0000
vn 1.0000 -0.0000 -0.0000
vn -0.0000 -0.0000 -1.0000
vt 0.500000 0.000000
vt 0.750000 0.250000
vt 0.593750 0.265625
vt 0.750000 0.156250
vt 0.500000 0.125000
vt 0.750000 0.250000
vt 0.500000 0.250000
vt 0.750000 0.156250
vt 0.593750 0.296875
vt 0.500000 0.156250
vt 0.750000 0.000000
vt 0.750000 0.250000
vt 0.500000 0.250000
vt 0.750000 0.156250
vt 0.562500 0.265625
vt 0.500000 0.156250
vt 0.750000 0.125000
vt 0.500000 0.250000
vt 0.500000 0.156250
vt 0.562500 0.296875
s 0
usemtl Material
f 1/1/1 5/11/1 7/17/1 3/5/1
f 4/8/2 3/6/2 7/18/2 8/19/2
f 8/19/3 7/18/3 5/12/3 6/14/3
f 6/15/4 2/3/4 4/9/4 8/20/4
f 2/4/5 1/2/5 3/7/5 4/10/5
f 6/16/6 5/13/6 1/2/6 2/4/6
o CuboBrazo
v 0.300000 10.799997 -5.600000
v 0.300000 9.599998 -5.600000
v 0.300000 10.799997 -4.000000
v 0.300000 9.599998 -4.000000
v -0.300000 10.799997 -5.600000
v -0.300000 9.599998 -5.600000
v -0.300000 10.799997 -4.000000
v -0.300000 9.599998 -4.000000
v 0.300000 10.799997 5.600000
v 0.300000 9.599998 5.600000
v 0.300000 10.799997 4.000000
v 0.300000 9.599998 4.000000
v -0.300000 10.799997 5.600000
v -0.300000 9.599998 5.600000
v -0.300000 10.799997 4.000000
v -0.300000 9.599998 4.000000
vn -0.0000 1.0000 -0.0000
vn -0.0000 -0.0000 1.0000
vn -1.0000 -0.0000 -0.0000
vn -0.0000 -1.0000 -0.0000
vn 1.0000 -0.0000 -0.0000
vn -0.0000 -0.0000 -1.0000
vt 0.671875 0.125000
vt 0.750000 0.343750
vt 0.078125 0.554688
vt 0.671875 0.125000
vt 0.750000 0.250000
vt 0.046875 0.554688
vt 0.671875 -0.000000
vt 0.078125 0.554688
vt 0.500000 0.343750
vt 0.046875 0.554688
vt 0.671875 -0.000000
vt 0.500000 0.250000
vt 0.578125 0.125000
vt 0.750000 0.343750
vt 0.078125 0.554688
vt 0.750000 0.250000
vt 0.578125 0.125000
vt 0.046875 0.554688
vt 0.578125 -0.000000
vt 0.078125 0.554688
vt 0.500000 0.343750
vt 0.046875 0.554688
vt 0.500000 0.250000
vt 0.578125 -0.000000
vt 0.671875 0.125000
vt 0.750000 0.343750
vt 0.078125 0.554688
vt 0.671875 0.125000
vt 0.750000 0.250000
vt 0.046875 0.554688
vt 0.671875 -0.000000
vt 0.078125 0.554688
vt 0.500000 0.343750
vt 0.046875 0.554688
vt 0.671875 -0.000000
vt 0.500000 0.250000
vt 0.578125 0.125000
vt 0.750000 0.343750
vt 0.078125 0.554688
vt 0.750000 0.250000
vt 0.578125 0.125000
vt 0.046875 0.554688
vt 0.578125 -0.000000
vt 0.078125 0.554688
vt 0.500000 0.343750
vt 0.046875 0.554688
vt 0.500000 0.250000
vt 0.578125 -0.000000
s 0
usemtl Material
f 9/21/7 13/33/7 15/39/7 11/27/7
f 12/30/8 11/28/8 15/40/8 16/42/8
f 16/43/9 15/41/9 13/34/9 14/36/9
f 14/37/10 10/24/10 12/31/10 16/44/10
f 10/25/11 9/22/11 11/29/11 12/32/11
f 14/38/12 13/35/12 9/23/12 10/26/12
f 17/45/7 19/51/7 23/63/7 21/57/7
f 20/54/12 24/66/12 23/64/12 19/52/12
f 24/67/9 22/60/9 21/58/9 23/65/9
f 22/61/10 24/68/10 20/55/10 18/48/10
f 18/49/11 20/56/11 19/53/11 17/46/11
f 22/62/8 18/50/8 17/47/8 21/59/8
o PaloHorizontal
v 0.200000 10.399997 -4.000000
v 0.200000 9.999997 -4.000000
v 0.200000 10.399997 -0.800000
v 0.200000 9.999997 -0.800000
v -0.200000 10.399997 -4.000000
v -0.200000 9.999997 -4.000000
v -0.200000 10.399997 -0.800000
v -0.200000 9.999997 -0.800000
v 0.200000 10.399997 4.000000
v 0.200000 9.999997 4.000000
v 0.200000 10.399997 0.800000
v 0.200000 9.999997 0.800000
v -0.200000 10.399997 4.000000
v -0.200000 9.999997 4.000000
v -0.200000 10.399997 0.800000
v -0.200000 9.999997 0.800000
vn -0.0000 1.0000 -0.0000
vn -0.0000 -0.0000 1.0000
vn -1.0000 -0.0000 -0.0000
vn -0.0000 -1.0000 -0.0000
vn 1.0000 -0.0000 -0.0000
vn -0.0000 -0.0000 -1.0000
vt 0.375000 0.750000
vt 0.375000 0.531250
vt 0.562500 0.531250
vt 0.734375 0.179688
vt 0.437500 0.531250
vt 0.562500 0.468750
vt 0.375000 0.250000
vt 0.562500 0.531250
vt 0.375000 0.289062
vt 0.562500 0.468750
vt 0.734375 0.132812
vt 0.437500 0.289062
vt 0.250000 0.750000
vt 0.375000 0.531250
vt 0.437500 0.531250
vt 0.437500 0.531250
vt 0.734375 0.179688
vt 0.437500 0.468750
vt 0.250000 0.250000
vt 0.437500 0.531250
vt 0.375000 0.289062
vt 0.437500 0.468750
vt 0.437500 0.289062
vt 0.734375 0.132812
vt 0.375000 0.750000
vt 0.375000 0.531250
vt 0.562500 0.531250
vt 0.734375 0.179688
vt 0.437500 0.531250
vt 0.562500 0.468750
vt 0.375000 0.250000
vt 0.562500 0.531250
vt 0.375000 0.289062
vt 0.562500 0.468750
vt 0.734375 0.132812
vt 0.437500 0.289062
vt 0.250000 0.750000
vt 0.375000 0.531250
vt 0.437500 0.531250
vt 0.437500 0.531250
vt 0.734375 0.179688
vt 0.437500 0.468750
vt 0.250000 0.250000
vt 0.437500 0.531250
vt 0.375000 0.289062
vt 0.437500 0.468750
vt 0.437500 0.289062
vt 0.734375 0.132812
s 0
usemtl Material
f 25/69/13 29/81/13 31/87/13 27/75/13
f 28/78/14 27/76/14 31/88/14 32/90/14
f 32/91/15 31/89/15 29/82/15 30/84/15
f 30/85/16 26/72/16 28/79/16 32/92/16
f 26/73/17 25/70/17 27/77/17 28/80/17
f 30/86/18 29/83/18 25/71/18 26/74/18
f 33/93/13 35/99/13 39/111/13 37/105/13
f 36/102/18 40/114/18 39/112/18 35/100/18
f 40/115/15 38/108/15 37/106/15 39/113/15
f 38/109/16 40/116/16 36/103/16 34/96/16
f 34/97/17 36/104/17 35/101/17 33/94/17
f 38/110/14 34/98/14 33/95/14 37/107/14
o PinchoBrazo
v 0.900000 10.199998 -4.800000
v 0.300000 10.599998 -5.300000
v 0.300000 9.799997 -5.300000
v 0.300000 10.599998 -4.300000
v 0.300000 9.799997 -4.300000
v -0.900000 10.199998 -4.800000
v -0.300000 10.599998 -5.300000
v -0.300000 9.799997 -5.300000
v -0.300000 10.599998 -4.300000
v -0.300000 9.799997 -4.300000
v 0.900000 10.199998 4.800000
v 0.300000 10.599998 5.300000
v 0.300000 9.799997 5.300000
v 0.300000 10.599998 4.300000
v 0.300000 9.799997 4.300000
v -0.900000 10.199998 4.800000
v -0.300000 10.599998 5.300000
v -0.300000 9.799997 5.300000
v -0.300000 10.599998 4.300000
v -0.300000 9.799997 4.300000
vn 0.5547 0.8321 -0.0000
vn 0.6402 -0.0000 0.7682
vn -1.0000 -0.0000 -0.0000
vn 0.5547 -0.8320 -0.0000
vn 0.6402 -0.0000 -0.7682
vn -0.5547 0.8321 -0.0000
vn -0.6402 -0.0000 0.7682
vn 1.0000 -0.0000 -0.0000
vn -0.5547 -0.8320 -0.0000
vn -0.6402 -0.0000 -0.7682
vt 0.281250 0.921875
vt 1.000000 0.700000
vt 0.265625 0.875000
vt 1.000000 0.300000
vt 0.265625 0.875000
vt 0.281250 0.875000
vt 0.281250 0.875000
vt 0.265625 0.875000
vt -0.000000 0.700000
vt -0.000000 0.300000
vt 0.281250 0.875000
vt 0.281250 0.921875
vt 1.000000 0.700000
vt 0.265625 0.875000
vt 1.000000 0.300000
vt 0.265625 0.875000
vt 0.281250 0.875000
vt 0.281250 0.875000
vt 0.265625 0.875000
vt -0.000000 0.700000
vt -0.000000 0.300000
vt 0.281250 0.875000
vt 0.281250 0.921875
vt 1.000000 0.700000
vt 0.265625 0.875000
vt 1.000000 0.300000
vt 0.265625 0.875000
vt 0.281250 0.875000
vt 0.281250 0.875000
vt 0.265625 0.875000
vt -0.000000 0.700000
vt -0.000000 0.300000
vt 0.281250 0.875000
vt 0.281250 0.921875
vt 1.000000 0.700000
vt 0.265625 0.875000
vt 1.000000 0.300000
vt 0.265625 0.875000
vt 0.281250 0.875000
vt 0.281250 0.875000
vt 0.265625 0.875000
vt -0.000000 0.700000
vt -0.000000 0.300000
vt 0.281250 0.875000
s 0
usemtl Material
f 41/117/19 42/119/19 44/123/19
f 41/117/20 44/124/20 45/127/20
f 45/126/21 44/125/21 42/118/21 43/120/21
f 43/121/22 41/117/22 45/127/22
f 43/122/23 42/119/23 41/117/23
f 46/128/24 49/134/24 47/130/24
f 46/128/25 50/138/25 49/135/25
f 50/137/26 48/131/26 47/129/26 49/136/26
f 48/132/27 50/138/27 46/128/27
f 48/133/28 46/128/28 47/130/28
f 51/139/19 54/145/19 52/141/19
f 51/139/23 55/149/23 54/146/23
f 55/148/21 53/142/21 52/140/21 54/147/21
f 53/143/22 55/149/22 51/139/22
f 53/144/20 51/139/20 52/141/20
f 56/150/24 57/152/24 59/156/24
f 56/150/28 59/157/28 60/160/28
f 60/159/26 59/158/26 57/151/26 58/153/26
f 58/154/27 56/150/27 60/160/27
f 58/155/25 57/152/25 56/150/25
o Cabeza.001
v 0.200000 9.599972 -0.200000
v 0.200000 -0.000023 -0.200000
v 0.200000 9.599972 0.200000
v 0.200000 -0.000023 0.200000
v -0.200000 9.599972 -0.200000
v -0.200000 -0.000023 -0.200000
v -0.200000 9.599972 0.200000
v -0.200000 -0.000023 0.200000
vn -0.0000 1.0000 -0.0000
vn -0.0000 -0.0000 1.0000
vn -1.0000 -0.0000 -0.0000
vn -0.0000 -1.0000 -0.0000
vn 1.0000 -0.0000 -0.0000
vn -0.0000 -0.0000 -1.0000
vt 0.187500 0.546875
vt 0.187500 0.750000
vt 0.187500 0.546875
vt 0.187500 0.179688
vt 0.187500 0.359375
vt 0.187500 0.750000
vt 0.140625 0.750000
vt 0.187500 0.179688
vt 0.187500 0.359375
vt 0.140625 0.179688
vt 0.140625 0.546875
vt 0.187500 0.750000
vt 0.140625 0.750000
vt 0.187500 0.179688
vt 0.140625 0.546875
vt 0.140625 0.179688
vt 0.140625 0.359375
vt 0.140625 0.750000
vt 0.140625 0.179688
vt 0.140625 0.359375
s 0
usemtl Material
f 61/161/29 65/171/29 67/177/29 63/165/29
f 64/168/30 63/166/30 67/178/30 68/179/30
f 68/179/31 67/178/31 65/172/31 66/174/31
f 66/175/32 62/163/32 64/169/32 68/180/32
f 62/164/33 61/162/33 63/167/33 64/170/33
f 66/176/34 65/173/34 61/162/34 62/164/34
