# Blender 3.5.1
# www.blender.org
mtllib Saw.mtl
o Cube
v 0.089600 0.111102 0.547705
v -0.089600 0.111102 0.547704
v -0.000000 -0.000000 0.784000
v 0.089600 -0.111101 0.547705
v -0.089600 -0.111101 0.547704
v 0.089600 -0.175932 0.530576
v -0.089600 -0.175932 0.530576
v -0.000000 -0.389787 0.679968
v 0.089600 -0.368660 0.419965
v -0.089600 -0.368660 0.419964
v 0.089600 -0.416329 0.372790
v -0.089600 -0.416329 0.372790
v -0.000000 -0.676314 0.396572
v 0.089600 -0.528770 0.181129
v -0.089600 -0.528770 0.181129
v 0.089600 -0.546603 0.116492
v -0.089600 -0.546602 0.116492
v -0.000000 -0.783620 0.007665
v 0.089600 -0.548806 -0.105711
v -0.089600 -0.548806 -0.105711
v 0.089600 -0.532382 -0.170734
v -0.089600 -0.532382 -0.170734
v -0.000000 -0.683528 -0.382946
v 0.089600 -0.423600 -0.364530
v -0.089600 -0.423600 -0.364530
v 0.089600 -0.376921 -0.412693
v -0.089600 -0.376921 -0.412693
v -0.000000 -0.403024 -0.672111
v 0.089600 -0.186327 -0.526964
v -0.089600 -0.186327 -0.526964
v 0.089600 -0.121883 -0.545501
v -0.089600 -0.121883 -0.545500
v -0.000000 -0.015331 -0.783219
v 0.089600 0.100320 -0.549908
v -0.089600 0.100320 -0.549908
v 0.089600 0.165537 -0.534188
v -0.089600 0.165537 -0.534188
v -0.000000 0.376094 -0.687068
v 0.089600 0.360400 -0.427235
v -0.089600 0.360400 -0.427235
v 0.089600 0.409058 -0.381050
v -0.089600 0.409058 -0.381050
v -0.000000 0.667890 -0.409463
v 0.089600 0.525159 -0.191524
v -0.089600 0.525158 -0.191524
v 0.089600 0.544399 -0.127273
v -0.089600 0.544399 -0.127273
v -0.000000 0.782796 -0.022995
v 0.089600 0.551010 0.094930
v -0.089600 0.551010 0.094930
v 0.089600 0.535994 0.160341
v -0.089600 0.535994 0.160341
v -0.000000 0.690589 0.369232
v 0.089600 0.430870 0.356271
v -0.089600 0.430870 0.356270
v 0.089600 0.385180 0.405423
v -0.089600 0.385180 0.405423
v -0.000000 0.415891 0.663650
v 0.089600 0.196721 0.523353
v -0.089600 0.196721 0.523353
vn -0.0000 0.9050 0.4255
vn -0.0000 -0.9050 0.4255
vn -0.0000 -0.0000 -1.0000
vn 0.9350 -0.0000 0.3546
vn -0.9350 -0.0000 0.3546
vn -0.0000 0.5727 0.8198
vn -0.0000 -0.9967 -0.0810
vn -0.0000 0.4978 -0.8673
vn 0.9349 -0.1767 0.3078
vn -0.9349 -0.1767 0.3078
vn -0.0000 0.0911 0.9958
vn -0.0000 -0.8251 -0.5650
vn -0.0000 0.8625 -0.5060
vn 0.9350 -0.3058 0.1794
vn -0.9350 -0.3058 0.1794
vn -0.0000 -0.4173 0.9088
vn -0.0000 -0.4348 -0.9005
vn -0.0000 1.0000 -0.0099
vn 0.9349 -0.3550 0.0035
vn -0.9349 -0.3550 0.0035
vn -0.0000 -0.8145 0.5801
vn -0.0000 0.0707 -0.9975
vn -0.0000 0.8720 0.4895
vn 0.9347 -0.3099 -0.1739
vn -0.9347 -0.3099 -0.1739
vn -0.0000 -0.9950 0.1001
vn -0.0000 0.5565 -0.8308
vn -0.0000 0.5142 0.8577
vn 0.9348 -0.1826 -0.3045
vn -0.9348 -0.1826 -0.3045
vn -0.0000 -0.9125 -0.4090
vn -0.0000 0.8960 -0.4441
vn -0.0000 0.0198 0.9998
vn 0.9347 -0.0071 -0.3555
vn -0.9347 -0.0071 -0.3555
vn -0.0000 -0.5875 -0.8092
vn -0.0000 0.9982 0.0603
vn -0.0000 -0.4812 0.8766
vn 0.9346 0.1712 -0.3119
vn -0.9346 0.1712 -0.3119
vn -0.0000 -0.1091 -0.9940
vn -0.0000 0.8366 0.5479
vn -0.0000 -0.8527 0.5224
vn 0.9347 0.3032 -0.1857
vn -0.9347 0.3032 -0.1857
vn -0.0000 0.4007 -0.9162
vn -0.0000 0.4535 0.8913
vn -0.0000 -0.9996 0.0297
vn 0.9345 0.3559 -0.0106
vn -0.9345 0.3558 -0.0106
vn -0.0000 0.8038 -0.5949
vn -0.0000 -0.0498 0.9988
vn -0.0000 -0.8812 -0.4728
vn 0.9344 0.3139 0.1684
vn -0.9344 0.3139 0.1684
vn -0.0000 0.9930 -0.1181
vn -0.0000 -0.5391 0.8422
vn -0.0000 -0.5305 -0.8477
vn 0.9345 0.1888 0.3018
vn -0.9345 0.1888 0.3018
vt 0.281250 0.890625
vt 0.269113 0.889434
vt 0.265625 0.921875
vt 0.265625 0.890625
vt 0.279113 0.889434
vt 0.281250 0.921875
vt 0.281250 0.882812
vt 0.281250 0.914062
vt 0.265625 0.890625
vt 0.269113 0.884434
vt 0.281250 0.921875
vt 0.281250 0.890625
vt 0.279113 0.884434
vt 0.265625 0.921875
vt 0.281250 0.890625
vt 0.269113 0.889434
vt 0.265625 0.921875
vt 0.265625 0.890625
vt 0.279113 0.889434
vt 0.281250 0.921875
vt 0.281250 0.882812
vt 0.281250 0.914062
vt 0.265625 0.890625
vt 0.269113 0.884434
vt 0.281250 0.921875
vt 0.281250 0.890625
vt 0.279113 0.884434
vt 0.265625 0.921875
vt 0.281250 0.890625
vt 0.269113 0.889434
vt 0.265625 0.921875
vt 0.265625 0.890625
vt 0.279113 0.889434
vt 0.281250 0.921875
vt 0.281250 0.882812
vt 0.281250 0.914062
vt 0.265625 0.890625
vt 0.269113 0.884434
vt 0.281250 0.921875
vt 0.281250 0.890625
vt 0.279113 0.884434
vt 0.265625 0.921875
vt 0.281250 0.890625
vt 0.269113 0.889434
vt 0.265625 0.921875
vt 0.265625 0.890625
vt 0.279113 0.889434
vt 0.281250 0.921875
vt 0.281250 0.882812
vt 0.281250 0.914062
vt 0.265625 0.890625
vt 0.269113 0.884434
vt 0.281250 0.921875
vt 0.281250 0.890625
vt 0.279113 0.884434
vt 0.265625 0.921875
vt 0.281250 0.890625
vt 0.269113 0.889434
vt 0.265625 0.921875
vt 0.265625 0.890625
vt 0.279113 0.889434
vt 0.281250 0.921875
vt 0.281250 0.882812
vt 0.281250 0.914062
vt 0.265625 0.890625
vt 0.269113 0.884434
vt 0.281250 0.921875
vt 0.281250 0.890625
vt 0.279113 0.884434
vt 0.265625 0.921875
vt 0.281250 0.890625
vt 0.269113 0.889434
vt 0.265625 0.921875
vt 0.265625 0.890625
vt 0.279113 0.889434
vt 0.281250 0.921875
vt 0.281250 0.882812
vt 0.281250 0.914062
vt 0.265625 0.890625
vt 0.269113 0.884434
vt 0.281250 0.921875
vt 0.281250 0.890625
vt 0.279113 0.884434
vt 0.265625 0.921875
vt 0.281250 0.890625
vt 0.269113 0.889434
vt 0.265625 0.921875
vt 0.265625 0.890625
vt 0.279113 0.889434
vt 0.281250 0.921875
vt 0.281250 0.882812
vt 0.281250 0.914062
vt 0.265625 0.890625
vt 0.269113 0.884434
vt 0.281250 0.921875
vt 0.281250 0.890625
vt 0.279113 0.884434
vt 0.265625 0.921875
vt 0.281250 0.890625
vt 0.269113 0.889434
vt 0.265625 0.921875
vt 0.265625 0.890625
vt 0.279113 0.889434
vt 0.281250 0.921875
vt 0.281250 0.882812
vt 0.281250 0.914062
vt 0.265625 0.890625
vt 0.269113 0.884434
vt 0.281250 0.921875
vt 0.281250 0.890625
vt 0.279113 0.884434
vt 0.265625 0.921875
vt 0.281250 0.890625
vt 0.269113 0.889434
vt 0.265625 0.921875
vt 0.265625 0.890625
vt 0.279113 0.889434
vt 0.281250 0.921875
vt 0.281250 0.882812
vt 0.281250 0.914062
vt 0.265625 0.890625
vt 0.269113 0.884434
vt 0.281250 0.921875
vt 0.281250 0.890625
vt 0.279113 0.884434
vt 0.265625 0.921875
vt 0.281250 0.890625
vt 0.269113 0.889434
vt 0.265625 0.921875
vt 0.265625 0.890625
vt 0.279113 0.889434
vt 0.281250 0.921875
vt 0.281250 0.882812
vt 0.281250 0.914062
vt 0.265625 0.890625
vt 0.269113 0.884434
vt 0.281250 0.921875
vt 0.281250 0.890625
vt 0.279113 0.884434
vt 0.265625 0.921875
vt 0.281250 0.890625
vt 0.269113 0.889434
vt 0.265625 0.921875
vt 0.265625 0.890625
vt 0.279113 0.889434
vt 0.281250 0.921875
vt 0.281250 0.882812
vt 0.281250 0.914062
vt 0.265625 0.890625
vt 0.269113 0.884434
vt 0.281250 0.921875
vt 0.281250 0.890625
vt 0.279113 0.884434
vt 0.265625 0.921875
vt 0.281250 0.890625
vt 0.269113 0.889434
vt 0.265625 0.921875
vt 0.265625 0.890625
vt 0.279113 0.889434
vt 0.281250 0.921875
vt 0.281250 0.882812
vt 0.281250 0.914062
vt 0.265625 0.890625
vt 0.269113 0.884434
vt 0.281250 0.921875
vt 0.281250 0.890625
vt 0.279113 0.884434
vt 0.265625 0.921875
s 0
usemtl Material.001
f 1/1/1 2/4/1 3/7/1
f 3/7/2 5/12/2 4/9/2
f 4/10/3 5/13/3 2/5/3 1/2/3
f 3/8/4 4/11/4 1/3/4
f 3/8/5 2/6/5 5/14/5
f 6/15/6 7/18/6 8/21/6
f 8/21/7 10/26/7 9/23/7
f 9/24/8 10/27/8 7/19/8 6/16/8
f 8/22/9 9/25/9 6/17/9
f 8/22/10 7/20/10 10/28/10
f 11/29/11 12/32/11 13/35/11
f 13/35/12 15/40/12 14/37/12
f 14/38/13 15/41/13 12/33/13 11/30/13
f 13/36/14 14/39/14 11/31/14
f 13/36/15 12/34/15 15/42/15
f 16/43/16 17/46/16 18/49/16
f 18/49/17 20/54/17 19/51/17
f 19/52/18 20/55/18 17/47/18 16/44/18
f 18/50/19 19/53/19 16/45/19
f 18/50/20 17/48/20 20/56/20
f 21/57/21 22/60/21 23/63/21
f 23/63/22 25/68/22 24/65/22
f 24/66/23 25/69/23 22/61/23 21/58/23
f 23/64/24 24/67/24 21/59/24
f 23/64/25 22/62/25 25/70/25
f 26/71/26 27/74/26 28/77/26
f 28/77/27 30/82/27 29/79/27
f 29/80/28 30/83/28 27/75/28 26/72/28
f 28/78/29 29/81/29 26/73/29
f 28/78/30 27/76/30 30/84/30
f 31/85/31 32/88/31 33/91/31
f 33/91/32 35/96/32 34/93/32
f 34/94/33 35/97/33 32/89/33 31/86/33
f 33/92/34 34/95/34 31/87/34
f 33/92/35 32/90/35 35/98/35
f 36/99/36 37/102/36 38/105/36
f 38/105/37 40/110/37 39/107/37
f 39/108/38 40/111/38 37/103/38 36/100/38
f 38/106/39 39/109/39 36/101/39
f 38/106/40 37/104/40 40/112/40
f 41/113/41 42/116/41 43/119/41
f 43/119/42 45/124/42 44/121/42
f 44/122/43 45/125/43 42/117/43 41/114/43
f 43/120/44 44/123/44 41/115/44
f 43/120/45 42/118/45 45/126/45
f 46/127/46 47/130/46 48/133/46
f 48/133/47 50/138/47 49/135/47
f 49/136/48 50/139/48 47/131/48 46/128/48
f 48/134/49 49/137/49 46/129/49
f 48/134/50 47/132/50 50/140/50
f 51/141/51 52/144/51 53/147/51
f 53/147/52 55/152/52 54/149/52
f 54/150/53 55/153/53 52/145/53 51/142/53
f 53/148/54 54/151/54 51/143/54
f 53/148/55 52/146/55 55/154/55
f 56/155/56 57/158/56 58/161/56
f 58/161/57 60/166/57 59/163/57
f 59/164/58 60/167/58 57/159/58 56/156/58
f 58/162/59 59/165/59 56/157/59
f 58/162/60 57/160/60 60/168/60
o Cylinder
v -0.089600 -0.000000 0.000000
v 0.089600 0.000000 -0.000000
v 0.089600 -0.109251 -0.549240
v 0.089600 0.000000 -0.560000
v 0.089600 -0.214303 -0.517373
v 0.089600 -0.311119 -0.465623
v 0.089600 -0.395980 -0.395980
v 0.089600 -0.465623 -0.311119
v 0.089600 -0.517373 -0.214303
v 0.089600 -0.549240 -0.109251
v 0.089600 -0.560000 -0.000000
v 0.089600 -0.549240 0.109251
v 0.089600 -0.517373 0.214303
v 0.089600 -0.465623 0.311119
v 0.089600 -0.395980 0.395980
v 0.089600 -0.311119 0.465623
v 0.089600 -0.214303 0.517373
v 0.089600 -0.109251 0.549240
v 0.089600 0.000000 0.560000
v 0.089600 0.109251 0.549240
v 0.089600 0.214303 0.517373
v 0.089600 0.311119 0.465623
v 0.089600 0.395980 0.395980
v 0.089600 0.465623 0.311119
v 0.089600 0.517373 0.214303
v 0.089600 0.549240 0.109251
v 0.089600 0.560000 -0.000000
v 0.089600 0.549240 -0.109251
v 0.089600 0.517373 -0.214303
v 0.089600 0.465623 -0.311119
v 0.089600 0.395980 -0.395980
v 0.089600 0.311119 -0.465623
v 0.089600 0.214303 -0.517373
v 0.089600 0.109251 -0.549240
v -0.089600 -0.000000 -0.560000
v -0.089600 -0.109251 -0.549240
v -0.089600 -0.214303 -0.517373
v -0.089600 -0.311119 -0.465623
v -0.089600 -0.395980 -0.395980
v -0.089600 -0.465623 -0.311119
v -0.089600 -0.517373 -0.214303
v -0.089600 -0.549240 -0.109251
v -0.089600 -0.560000 0.000000
v -0.089600 -0.549240 0.109251
v -0.089600 -0.517373 0.214303
v -0.089600 -0.465623 0.311119
v -0.089600 -0.395980 0.395980
v -0.089600 -0.311119 0.465623
v -0.089600 -0.214303 0.517373
v -0.089600 -0.109251 0.549240
v -0.089600 -0.000000 0.560000
v -0.089600 0.109251 0.549240
v -0.089600 0.214303 0.517373
v -0.089600 0.311119 0.465623
v -0.089600 0.395980 0.395980
v -0.089600 0.465623 0.311119
v -0.089600 0.517373 0.214303
v -0.089600 0.549240 0.109251
v -0.089600 0.560000 0.000000
v -0.089600 0.549240 -0.109251
v -0.089600 0.517373 -0.214303
v -0.089600 0.465623 -0.311119
v -0.089600 0.395980 -0.395980
v -0.089600 0.311119 -0.465623
v -0.089600 0.214303 -0.517373
v -0.089600 0.109251 -0.549240
vn -0.0000 -0.0980 -0.9952
vn -0.0000 -0.2903 -0.9569
vn -0.0000 -0.4714 -0.8819
vn -0.0000 -0.6344 -0.7730
vn -0.0000 -0.7730 -0.6344
vn -0.0000 -0.8819 -0.4714
vn -0.0000 -0.9569 -0.2903
vn -0.0000 -0.9952 -0.0980
vn -0.0000 -0.9952 0.0980
vn -0.0000 -0.9569 0.2903
vn -0.0000 -0.8819 0.4714
vn -0.0000 -0.7730 0.6344
vn -0.0000 -0.6344 0.7730
vn -0.0000 -0.4714 0.8819
vn -0.0000 -0.2903 0.9569
vn -0.0000 -0.0980 0.9952
vn -0.0000 0.0980 0.9952
vn -0.0000 0.2903 0.9569
vn -0.0000 0.4714 0.8819
vn -0.0000 0.6344 0.7730
vn -0.0000 0.7730 0.6344
vn -0.0000 0.8819 0.4714
vn -0.0000 0.9569 0.2903
vn -0.0000 0.9952 0.0980
vn -0.0000 0.9952 -0.0980
vn -0.0000 0.9569 -0.2903
vn -0.0000 0.8819 -0.4714
vn -0.0000 0.7730 -0.6344
vn -0.0000 0.6344 -0.7730
vn -0.0000 0.4714 -0.8819
vn -0.0000 0.2903 -0.9569
vn -0.0000 0.0980 -0.9952
vn 1.0000 -0.0000 -0.0000
vn -1.0000 -0.0000 -0.0000
vt 0.274902 0.875488
vt 0.274902 0.875488
vt 0.272416 0.883991
vt 0.274902 0.905518
vt 0.273391 0.883991
vt 0.274902 0.905518
vt 0.271478 0.883991
vt 0.274902 0.905518
vt 0.270613 0.883991
vt 0.274902 0.905518
vt 0.269855 0.883991
vt 0.274902 0.905518
vt 0.270613 0.883991
vt 0.274902 0.905518
vt 0.271478 0.883991
vt 0.274902 0.905518
vt 0.272416 0.883991
vt 0.274902 0.905518
vt 0.273391 0.883991
vt 0.274902 0.905518
vt 0.274366 0.883991
vt 0.274902 0.905518
vt 0.275304 0.883991
vt 0.274902 0.905518
vt 0.276169 0.883991
vt 0.274902 0.905518
vt 0.276927 0.883991
vt 0.269855 0.883991
vt 0.274902 0.905518
vt 0.270613 0.883991
vt 0.274902 0.905518
vt 0.271478 0.883991
vt 0.274902 0.905518
vt 0.272416 0.883991
vt 0.274902 0.905518
vt 0.273391 0.883991
vt 0.274902 0.905518
vt 0.274366 0.883991
vt 0.274902 0.905518
vt 0.275304 0.883991
vt 0.274902 0.905518
vt 0.276169 0.883991
vt 0.274902 0.905518
vt 0.276927 0.883991
vt 0.274902 0.905518
vt 0.276169 0.883991
vt 0.274902 0.905518
vt 0.275304 0.883991
vt 0.274902 0.905518
vt 0.274366 0.883991
vt 0.274902 0.905518
vt 0.273391 0.883991
vt 0.274902 0.905518
vt 0.272416 0.883991
vt 0.274902 0.905518
vt 0.271478 0.883991
vt 0.274902 0.905518
vt 0.270613 0.883991
vt 0.274902 0.905518
vt 0.269855 0.883991
vt 0.276927 0.883991
vt 0.274902 0.905518
vt 0.276169 0.883991
vt 0.274902 0.905518
vt 0.275304 0.883991
vt 0.274902 0.905518
vt 0.274366 0.883991
vt 0.274902 0.905518
vt 0.273391 0.888991
vt 0.274902 0.905518
vt 0.272416 0.888991
vt 0.274902 0.905518
vt 0.271478 0.888991
vt 0.274902 0.905518
vt 0.270613 0.888991
vt 0.274902 0.905518
vt 0.269855 0.888991
vt 0.274902 0.905518
vt 0.270613 0.888991
vt 0.274902 0.905518
vt 0.271478 0.888991
vt 0.274902 0.905518
vt 0.272416 0.888991
vt 0.274902 0.905518
vt 0.273391 0.888991
vt 0.274902 0.905518
vt 0.274366 0.888991
vt 0.274902 0.905518
vt 0.275304 0.888991
vt 0.274902 0.905518
vt 0.276169 0.888991
vt 0.274902 0.905518
vt 0.276927 0.888991
vt 0.269855 0.888991
vt 0.274902 0.905518
vt 0.270613 0.888991
vt 0.274902 0.905518
vt 0.271478 0.888991
vt 0.274902 0.905518
vt 0.272416 0.888991
vt 0.274902 0.905518
vt 0.273391 0.888991
vt 0.274902 0.905518
vt 0.274366 0.888991
vt 0.274902 0.905518
vt 0.275304 0.888991
vt 0.274902 0.905518
vt 0.276169 0.888991
vt 0.274902 0.905518
vt 0.276927 0.888991
vt 0.274902 0.905518
vt 0.276169 0.888991
vt 0.274902 0.905518
vt 0.275304 0.888991
vt 0.274902 0.905518
vt 0.274366 0.888991
vt 0.274902 0.905518
vt 0.273391 0.888991
vt 0.274902 0.905518
vt 0.272416 0.888991
vt 0.274902 0.905518
vt 0.271478 0.888991
vt 0.274902 0.905518
vt 0.270613 0.888991
vt 0.274902 0.905518
vt 0.269855 0.888991
vt 0.276927 0.888991
vt 0.274902 0.905518
vt 0.276169 0.888991
vt 0.274902 0.905518
vt 0.275304 0.888991
vt 0.274902 0.905518
vt 0.274366 0.888991
vt 0.274902 0.905518
s 0
usemtl Material.001
f 95/237/61 64/173/61 63/171/61 96/239/61
f 96/239/62 63/171/62 65/175/62 97/241/62
f 97/241/63 65/175/63 66/177/63 98/243/63
f 98/243/64 66/177/64 67/179/64 99/245/64
f 99/245/65 67/179/65 68/181/65 100/247/65
f 100/247/66 68/181/66 69/183/66 101/249/66
f 101/249/67 69/183/67 70/185/67 102/251/67
f 102/251/68 70/185/68 71/187/68 103/253/68
f 103/253/69 71/187/69 72/189/69 104/255/69
f 104/255/70 72/189/70 73/191/70 105/257/70
f 105/257/71 73/191/71 74/193/71 106/259/71
f 106/259/72 74/193/72 75/195/72 107/261/72
f 107/262/73 75/196/73 76/198/73 108/264/73
f 108/264/74 76/198/74 77/200/74 109/266/74
f 109/266/75 77/200/75 78/202/75 110/268/75
f 110/268/76 78/202/76 79/204/76 111/270/76
f 111/270/77 79/204/77 80/206/77 112/272/77
f 112/272/78 80/206/78 81/208/78 113/274/78
f 113/274/79 81/208/79 82/210/79 114/276/79
f 114/276/80 82/210/80 83/212/80 115/278/80
f 115/278/81 83/212/81 84/214/81 116/280/81
f 116/280/82 84/214/82 85/216/82 117/282/82
f 117/282/83 85/216/83 86/218/83 118/284/83
f 118/284/84 86/218/84 87/220/84 119/286/84
f 119/286/85 87/220/85 88/222/85 120/288/85
f 120/288/86 88/222/86 89/224/86 121/290/86
f 121/290/87 89/224/87 90/226/87 122/292/87
f 122/292/88 90/226/88 91/228/88 123/294/88
f 123/295/89 91/229/89 92/231/89 124/297/89
f 124/297/90 92/231/90 93/233/90 125/299/90
f 125/299/91 93/233/91 94/235/91 126/301/91
f 126/301/92 94/235/92 64/173/92 95/237/92
f 62/170/93 63/172/93 64/174/93
f 62/170/93 65/176/93 63/172/93
f 62/170/93 66/178/93 65/176/93
f 62/170/93 67/180/93 66/178/93
f 62/170/93 68/182/93 67/180/93
f 62/170/93 69/184/93 68/182/93
f 62/170/93 70/186/93 69/184/93
f 62/170/93 71/188/93 70/186/93
f 62/170/93 72/190/93 71/188/93
f 62/170/93 73/192/93 72/190/93
f 62/170/93 74/194/93 73/192/93
f 62/170/93 75/197/93 74/194/93
f 62/170/93 76/199/93 75/197/93
f 62/170/93 77/201/93 76/199/93
f 62/170/93 78/203/93 77/201/93
f 62/170/93 79/205/93 78/203/93
f 62/170/93 80/207/93 79/205/93
f 62/170/93 81/209/93 80/207/93
f 62/170/93 82/211/93 81/209/93
f 62/170/93 83/213/93 82/211/93
f 62/170/93 84/215/93 83/213/93
f 62/170/93 85/217/93 84/215/93
f 62/170/93 86/219/93 85/217/93
f 62/170/93 87/221/93 86/219/93
f 62/170/93 88/223/93 87/221/93
f 62/170/93 89/225/93 88/223/93
f 62/170/93 90/227/93 89/225/93
f 62/170/93 91/230/93 90/227/93
f 62/170/93 92/232/93 91/230/93
f 62/170/93 93/234/93 92/232/93
f 62/170/93 94/236/93 93/234/93
f 62/170/93 64/174/93 94/236/93
f 61/169/94 95/238/94 96/240/94
f 61/169/94 96/240/94 97/242/94
f 61/169/94 97/242/94 98/244/94
f 61/169/94 98/244/94 99/246/94
f 61/169/94 99/246/94 100/248/94
f 61/169/94 100/248/94 101/250/94
f 61/169/94 101/250/94 102/252/94
f 61/169/94 102/252/94 103/254/94
f 61/169/94 103/254/94 104/256/94
f 61/169/94 104/256/94 105/258/94
f 61/169/94 105/258/94 106/260/94
f 61/169/94 106/260/94 107/263/94
f 61/169/94 107/263/94 108/265/94
f 61/169/94 108/265/94 109/267/94
f 61/169/94 109/267/94 110/269/94
f 61/169/94 110/269/94 111/271/94
f 61/169/94 111/271/94 112/273/94
f 61/169/94 112/273/94 113/275/94
f 61/169/94 113/275/94 114/277/94
f 61/169/94 114/277/94 115/279/94
f 61/169/94 115/279/94 116/281/94
f 61/169/94 116/281/94 117/283/94
f 61/169/94 117/283/94 118/285/94
f 61/169/94 118/285/94 119/287/94
f 61/169/94 119/287/94 120/289/94
f 61/169/94 120/289/94 121/291/94
f 61/169/94 121/291/94 122/293/94
f 61/169/94 122/293/94 123/296/94
f 61/169/94 123/296/94 124/298/94
f 61/169/94 124/298/94 125/300/94
f 61/169/94 125/300/94 126/302/94
f 61/169/94 126/302/94 95/238/94
