# Blender 3.5.1
# www.blender.org
mtllib WallSpikeTall.mtl
o Base
v 0.800000 1.600000 0.700000
v 0.800000 0.000000 0.700000
v 0.800000 1.600000 0.800000
v 0.800000 0.000000 0.800000
v -0.800000 1.600000 0.700000
v -0.800000 0.000000 0.700000
v -0.800000 1.600000 0.800000
v -0.800000 0.000000 0.800000
vn -0.0000 1.0000 -0.0000
vn -0.0000 -0.0000 1.0000
vn -1.0000 -0.0000 -0.0000
vn -0.0000 -1.0000 -0.0000
vn 1.0000 -0.0000 -0.0000
vn -0.0000 -0.0000 -1.0000
vt 0.250000 1.000000
vt 0.265625 0.875000
vt -0.000000 0.937500
vt 0.265625 1.000000
vt -0.000000 0.875000
vt 0.265625 1.000000
vt 0.250000 0.937500
vt 0.250000 0.875000
vt 0.250000 0.875000
vt 0.250000 1.000000
vt 0.250000 0.875000
vt 0.250000 1.000000
vt 0.250000 0.937500
vt 0.265625 0.875000
vt 0.250000 0.875000
vt 0.265625 0.875000
vt 0.000000 0.937500
vt 0.265625 1.000000
vt 0.000000 0.875000
vt 0.265625 0.875000
vt 0.250000 0.875000
s 0
usemtl Material
f 1/1/1 5/11/1 7/16/1 3/6/1
f 4/9/2 3/7/2 7/17/2 8/19/2
f 8/20/3 7/18/3 5/12/3 6/15/3
f 6/14/4 2/4/4 4/10/4 8/21/4
f 2/4/5 1/2/5 3/8/5 4/10/5
f 6/15/6 5/13/6 1/3/6 2/5/6
o Spike1
v 0.400000 0.400000 0.300000
v 0.640000 0.640000 0.700000
v 0.640000 0.160000 0.700000
v 0.160000 0.640000 0.700000
v 0.160000 0.160000 0.700000
v -0.529765 -0.365541 0.493081
vn -0.0000 0.8575 -0.5145
vn -0.0000 -0.0000 1.0000
vn -0.8575 -0.0000 -0.5145
vn -0.0000 -0.8575 -0.5145
vn 0.8575 -0.0000 -0.5145
vt 0.281250 0.921875
vt 0.281250 0.875000
vt 1.000000 0.750000
vt 0.265625 0.875000
vt 1.000000 0.250000
vt 0.281250 0.875000
vt 0.000000 0.750000
vt 0.265625 0.875000
vt 0.000000 0.250000
vt 0.281250 0.875000
vt 0.265625 0.875000
s 0
usemtl Material
f 9/22/7 12/29/7 10/23/7
f 11/26/8 10/24/8 12/28/8 13/30/8
f 13/31/9 12/29/9 9/22/9
f 9/22/10 11/27/10 13/32/10
f 9/22/11 10/25/11 11/27/11
o Spike1.002
v -0.400000 0.400000 0.300000
v -0.160000 0.640000 0.700000
v -0.160000 0.160000 0.700000
v -0.640000 0.640000 0.700000
v -0.640000 0.160000 0.700000
v -1.329765 -0.365541 0.493081
vn -0.0000 0.8575 -0.5145
vn -0.0000 -0.0000 1.0000
vn -0.8575 -0.0000 -0.5145
vn -0.0000 -0.8575 -0.5145
vn 0.8575 -0.0000 -0.5145
vt 0.281250 0.921875
vt 0.281250 0.875000
vt 1.000000 0.750000
vt 0.265625 0.875000
vt 1.000000 0.250000
vt 0.281250 0.875000
vt 0.000000 0.750000
vt 0.265625 0.875000
vt 0.000000 0.250000
vt 0.281250 0.875000
vt 0.265625 0.875000
s 0
usemtl Material
f 15/33/12 18/40/12 16/34/12
f 17/37/13 16/35/13 18/39/13 19/41/13
f 19/42/14 18/40/14 15/33/14
f 15/33/15 17/38/15 19/43/15
f 15/33/16 16/36/16 17/38/16
o Spike1.001
v 0.400000 1.200000 0.300000
v 0.640000 1.440000 0.700000
v 0.640000 0.960000 0.700000
v 0.160000 1.440000 0.700000
v 0.160000 0.960000 0.700000
v -0.529765 0.434459 0.493081
vn -0.0000 0.8575 -0.5145
vn -0.0000 -0.0000 1.0000
vn -0.8575 -0.0000 -0.5145
vn -0.0000 -0.8575 -0.5145
vn 0.8575 -0.0000 -0.5145
vt 0.281250 0.921875
vt 0.281250 0.875000
vt 1.000000 0.750000
vt 0.265625 0.875000
vt 1.000000 0.250000
vt 0.281250 0.875000
vt 0.000000 0.750000
vt 0.265625 0.875000
vt 0.000000 0.250000
vt 0.281250 0.875000
vt 0.265625 0.875000
s 0
usemtl Material
f 21/44/17 24/51/17 22/45/17
f 23/48/18 22/46/18 24/50/18 25/52/18
f 25/53/19 24/51/19 21/44/19
f 21/44/20 23/49/20 25/54/20
f 21/44/21 22/47/21 23/49/21
o Spike1.003
v -0.400000 1.200000 0.300000
v -0.160000 1.440000 0.700000
v -0.160000 0.960000 0.700000
v -0.640000 1.440000 0.700000
v -0.640000 0.960000 0.700000
v -1.329765 0.434459 0.493081
vn -0.0000 0.8575 -0.5145
vn -0.0000 -0.0000 1.0000
vn -0.8575 -0.0000 -0.5145
vn -0.0000 -0.8575 -0.5145
vn 0.8575 -0.0000 -0.5145
vt 0.281250 0.921875
vt 0.281250 0.875000
vt 1.000000 0.750000
vt 0.265625 0.875000
vt 1.000000 0.250000
vt 0.281250 0.875000
vt 0.000000 0.750000
vt 0.265625 0.875000
vt 0.000000 0.250000
vt 0.281250 0.875000
vt 0.265625 0.875000
s 0
usemtl Material
f 27/55/22 30/62/22 28/56/22
f 29/59/23 28/57/23 30/61/23 31/63/23
f 31/64/24 30/62/24 27/55/24
f 27/55/25 29/60/25 31/65/25
f 27/55/26 28/58/26 29/60/26
