# MagicaVoxel @ Ephtracy

# group
o 

# material
mtllib CatPawless.mtl
usemtl palette

# normals
vn -1 0 0
vn 1 0 0
vn 0 0 1
vn 0 0 -1
vn 0 -1 0
vn 0 1 0

# texcoords
vt 0.955078 0.5
vt 0.978516 0.5
vt 0.982422 0.5
vt 0.986328 0.5
vt 0.990234 0.5
vt 0.994141 0.5

# verts
v -0.5 0.8 0.6
v -0.5 0.8 0.5
v -0.5 0.9 0.6
v -0.5 0.9 0.5
v -0.5 1 0.6
v -0.5 1 0.5
v -0.5 1.1 0.6
v -0.5 1.1 0.5
v -0.4 0.8 0.5
v -0.4 0.8 0.2
v -0.4 0.9 0.6
v -0.4 0.9 0.5
v -0.4 1 0.6
v -0.4 1 0.5
v -0.4 1.1 0.6
v -0.4 1.1 0.5
v -0.4 1.2 0.6
v -0.4 1.2 0.5
v -0.4 1.2 0.4
v -0.4 1.2 0.3
v -0.4 1.2 0.2
v -0.4 1.5 0.5
v -0.4 1.5 0.4
v -0.4 1.5 0.3
v -0.4 1.6 0.5
v -0.4 1.6 0.4
v -0.3 0.4 0.4
v -0.3 0.4 -0.5
v -0.3 0.7 0.6
v -0.3 0.7 0.4
v -0.3 0.7 0
v -0.3 0.7 -0.1
v -0.3 0.7 -0.2
v -0.3 0.7 -0.3
v -0.3 0.8 0.6
v -0.3 0.8 0.2
v -0.3 0.8 0
v -0.3 0.8 -0.1
v -0.3 0.8 -0.2
v -0.3 0.8 -0.3
v -0.3 0.8 -0.5
v -0.3 1.2 0.6
v -0.3 1.2 0.5
v -0.3 1.2 0.3
v -0.3 1.2 0.2
v -0.3 1.3 0.6
v -0.3 1.3 0.5
v -0.3 1.3 0.3
v -0.3 1.3 0.2
v -0.1 0.8 0.7
v -0.1 0.8 0.6
v -0.1 0.9 0.6
v -0.1 1 0.7
v -0.1 1 0.6
v -0.1 1 -0.5
v -0.1 1 -0.6
v -0.1 1.3 -0.5
v -0.1 1.3 -0.6
v 0 0.7 -0.5
v 0 0.7 -0.6
v 0 0.8 -0.5
v 0 1 -0.5
v 0 1 -0.6
v 0 1.3 -0.5
v 0 1.3 -0.6
v 0 1.4 -0.5
v 0 1.4 -0.6
v 0.2 1.3 0.5
v 0.2 1.3 0.4
v 0.2 1.4 0.5
v 0.2 1.4 0.4
v 0.3 1.3 0.4
v 0.3 1.3 0.3
v 0.3 1.4 0.5
v 0.3 1.4 0.4
v 0.3 1.4 0.3
v 0.3 1.5 0.5
v 0.3 1.5 0.4
v 0.4 1.4 0.4
v 0.4 1.4 0.3
v 0.4 1.5 0.5
v 0.4 1.5 0.4
v 0.4 1.5 0.3
v 0.4 1.6 0.5
v 0.4 1.6 0.4
v -0.3 1.4 0.4
v -0.3 1.4 0.3
v -0.3 1.5 0.5
v -0.3 1.5 0.4
v -0.3 1.5 0.3
v -0.3 1.6 0.5
v -0.3 1.6 0.4
v -0.2 1.3 0.4
v -0.2 1.3 0.3
v -0.2 1.4 0.5
v -0.2 1.4 0.4
v -0.2 1.4 0.3
v -0.2 1.5 0.5
v -0.2 1.5 0.4
v -0.1 1.3 0.5
v -0.1 1.3 0.4
v -0.1 1.4 0.5
v -0.1 1.4 0.4
v 0 1 -0.5
v 0 1 -0.6
v 0 1.3 -0.5
v 0 1.3 -0.6
v 0.1 0.7 -0.5
v 0.1 0.7 -0.6
v 0.1 0.8 -0.5
v 0.1 1 -0.5
v 0.1 1 -0.6
v 0.1 1.3 -0.5
v 0.1 1.3 -0.6
v 0.1 1.4 -0.5
v 0.1 1.4 -0.6
v 0.2 0.8 0.7
v 0.2 0.8 0.6
v 0.2 0.9 0.6
v 0.2 1 0.7
v 0.2 1 0.6
v 0.4 0.4 0.4
v 0.4 0.4 -0.5
v 0.4 0.7 0.6
v 0.4 0.7 0.4
v 0.4 0.7 0
v 0.4 0.7 -0.1
v 0.4 0.7 -0.2
v 0.4 0.7 -0.3
v 0.4 0.8 0.6
v 0.4 0.8 0.2
v 0.4 0.8 0
v 0.4 0.8 -0.1
v 0.4 0.8 -0.2
v 0.4 0.8 -0.3
v 0.4 0.8 -0.5
v 0.4 1.2 0.6
v 0.4 1.2 0.5
v 0.4 1.2 0.3
v 0.4 1.2 0.2
v 0.4 1.3 0.6
v 0.4 1.3 0.5
v 0.4 1.3 0.3
v 0.4 1.3 0.2
v 0.5 0.8 0.5
v 0.5 0.8 0.2
v 0.5 0.9 0.6
v 0.5 0.9 0.5
v 0.5 1 0.6
v 0.5 1 0.5
v 0.5 1.1 0.6
v 0.5 1.1 0.5
v 0.5 1.2 0.6
v 0.5 1.2 0.5
v 0.5 1.2 0.4
v 0.5 1.2 0.3
v 0.5 1.2 0.2
v 0.5 1.5 0.5
v 0.5 1.5 0.4
v 0.5 1.5 0.3
v 0.5 1.6 0.5
v 0.5 1.6 0.4
v 0.6 0.8 0.6
v 0.6 0.8 0.5
v 0.6 0.9 0.6
v 0.6 0.9 0.5
v 0.6 1 0.6
v 0.6 1 0.5
v 0.6 1.1 0.6
v 0.6 1.1 0.5
v -0.1 0.8 0.7
v -0.1 1 0.7
v 0 0.9 0.7
v 0 1 0.7
v 0.1 0.9 0.7
v 0.1 1 0.7
v 0.2 0.8 0.7
v 0.2 1 0.7
v -0.5 0.8 0.6
v -0.5 0.9 0.6
v -0.5 1 0.6
v -0.5 1.1 0.6
v -0.4 0.8 0.6
v -0.4 0.9 0.6
v -0.4 1 0.6
v -0.4 1.1 0.6
v -0.4 1.2 0.6
v -0.3 0.7 0.6
v -0.3 0.8 0.6
v -0.3 0.9 0.6
v -0.3 1.2 0.6
v -0.3 1.3 0.6
v -0.2 0.9 0.6
v -0.2 1.1 0.6
v -0.1 0.8 0.6
v -0.1 0.9 0.6
v -0.1 1 0.6
v -0.1 1.1 0.6
v -0.1 1.2 0.6
v -0.1 1.3 0.6
v 0 1 0.6
v 0 1.2 0.6
v 0 1.3 0.6
v 0.1 1 0.6
v 0.1 1.2 0.6
v 0.1 1.3 0.6
v 0.2 0.8 0.6
v 0.2 0.9 0.6
v 0.2 1 0.6
v 0.2 1.1 0.6
v 0.2 1.2 0.6
v 0.2 1.3 0.6
v 0.3 0.9 0.6
v 0.3 1.1 0.6
v 0.4 0.7 0.6
v 0.4 0.8 0.6
v 0.4 0.9 0.6
v 0.4 1.2 0.6
v 0.4 1.3 0.6
v 0.5 0.8 0.6
v 0.5 0.9 0.6
v 0.5 1 0.6
v 0.5 1.1 0.6
v 0.5 1.2 0.6
v 0.6 0.8 0.6
v 0.6 0.9 0.6
v 0.6 1 0.6
v 0.6 1.1 0.6
v -0.4 1.2 0.5
v -0.4 1.5 0.5
v -0.4 1.6 0.5
v -0.3 1.2 0.5
v -0.3 1.3 0.5
v -0.3 1.4 0.5
v -0.3 1.5 0.5
v -0.3 1.6 0.5
v -0.2 1.3 0.5
v -0.2 1.4 0.5
v -0.2 1.5 0.5
v -0.1 1.3 0.5
v -0.1 1.4 0.5
v 0.2 1.3 0.5
v 0.2 1.4 0.5
v 0.3 1.3 0.5
v 0.3 1.4 0.5
v 0.3 1.5 0.5
v 0.4 1.2 0.5
v 0.4 1.3 0.5
v 0.4 1.4 0.5
v 0.4 1.5 0.5
v 0.4 1.6 0.5
v 0.5 1.2 0.5
v 0.5 1.5 0.5
v 0.5 1.6 0.5
v -0.3 0.4 0.4
v -0.3 0.7 0.4
v -0.1 0.4 0.4
v -0.1 0.5 0.4
v 0.2 0.4 0.4
v 0.2 0.5 0.4
v 0.4 0.4 0.4
v 0.4 0.7 0.4
v -0.1 1 -0.5
v -0.1 1.3 -0.5
v 0 0.8 -0.5
v 0 1 -0.5
v 0 1.3 -0.5
v 0 1.4 -0.5
v 0.1 0.8 -0.5
v 0.1 1 -0.5
v 0.1 1.3 -0.5
v 0.1 1.4 -0.5
v -0.5 0.8 0.5
v -0.5 0.9 0.5
v -0.5 1 0.5
v -0.5 1.1 0.5
v -0.4 0.8 0.5
v -0.4 0.9 0.5
v -0.4 1 0.5
v -0.4 1.1 0.5
v 0.5 0.8 0.5
v 0.5 0.9 0.5
v 0.5 1 0.5
v 0.5 1.1 0.5
v 0.6 0.8 0.5
v 0.6 0.9 0.5
v 0.6 1 0.5
v 0.6 1.1 0.5
v -0.4 1.5 0.4
v -0.4 1.6 0.4
v -0.3 1.4 0.4
v -0.3 1.5 0.4
v -0.3 1.6 0.4
v -0.2 1.3 0.4
v -0.2 1.4 0.4
v -0.2 1.5 0.4
v -0.1 1.3 0.4
v -0.1 1.4 0.4
v 0.2 1.3 0.4
v 0.2 1.4 0.4
v 0.3 1.3 0.4
v 0.3 1.4 0.4
v 0.3 1.5 0.4
v 0.4 1.4 0.4
v 0.4 1.5 0.4
v 0.4 1.6 0.4
v 0.5 1.5 0.4
v 0.5 1.6 0.4
v -0.4 1.2 0.3
v -0.4 1.5 0.3
v -0.3 1.2 0.3
v -0.3 1.3 0.3
v -0.3 1.4 0.3
v -0.3 1.5 0.3
v -0.2 1.3 0.3
v -0.2 1.4 0.3
v 0.3 1.3 0.3
v 0.3 1.4 0.3
v 0.4 1.2 0.3
v 0.4 1.3 0.3
v 0.4 1.4 0.3
v 0.4 1.5 0.3
v 0.5 1.2 0.3
v 0.5 1.5 0.3
v -0.4 0.8 0.2
v -0.4 1.2 0.2
v -0.3 0.8 0.2
v -0.3 1.2 0.2
v -0.3 1.3 0.2
v 0.4 0.8 0.2
v 0.4 1.2 0.2
v 0.4 1.3 0.2
v 0.5 0.8 0.2
v 0.5 1.2 0.2
v -0.3 0.4 -0.5
v -0.3 0.8 -0.5
v -0.1 0.4 -0.5
v -0.1 0.5 -0.5
v 0 0.6 -0.5
v 0 0.7 -0.5
v 0 0.8 -0.5
v 0.1 0.6 -0.5
v 0.1 0.7 -0.5
v 0.1 0.8 -0.5
v 0.2 0.4 -0.5
v 0.2 0.5 -0.5
v 0.4 0.4 -0.5
v 0.4 0.8 -0.5
v -0.1 1 -0.6
v -0.1 1.3 -0.6
v 0 0.7 -0.6
v 0 1 -0.6
v 0 1.3 -0.6
v 0 1.4 -0.6
v 0.1 0.7 -0.6
v 0.1 1 -0.6
v 0.1 1.3 -0.6
v 0.1 1.4 -0.6
v -0.3 0.4 0.4
v -0.1 0.4 0.4
v 0.2 0.4 0.4
v 0.4 0.4 0.4
v -0.3 0.4 -0.5
v -0.1 0.4 -0.5
v 0.2 0.4 -0.5
v 0.4 0.4 -0.5
v -0.3 0.7 0.6
v 0.4 0.7 0.6
v -0.3 0.7 0.4
v 0.4 0.7 0.4
v 0 0.7 -0.5
v 0.1 0.7 -0.5
v 0 0.7 -0.6
v 0.1 0.7 -0.6
v -0.1 0.8 0.7
v 0.2 0.8 0.7
v -0.5 0.8 0.6
v -0.4 0.8 0.6
v -0.3 0.8 0.6
v -0.1 0.8 0.6
v 0.2 0.8 0.6
v 0.4 0.8 0.6
v 0.5 0.8 0.6
v 0.6 0.8 0.6
v -0.5 0.8 0.5
v -0.4 0.8 0.5
v 0.5 0.8 0.5
v 0.6 0.8 0.5
v -0.4 0.8 0.2
v -0.3 0.8 0.2
v 0.4 0.8 0.2
v 0.5 0.8 0.2
v -0.5 1 0.6
v -0.4 1 0.6
v 0.5 1 0.6
v 0.6 1 0.6
v -0.5 1 0.5
v -0.4 1 0.5
v 0.5 1 0.5
v 0.6 1 0.5
v -0.1 1 -0.5
v 0 1 -0.5
v -0.1 1 -0.6
v 0 1 -0.6
v 0 1.3 -0.5
v 0.1 1.3 -0.5
v 0 1.3 -0.6
v 0.1 1.3 -0.6
v -0.3 0.8 0.2
v 0.4 0.8 0.2
v -0.3 0.8 0
v 0.4 0.8 0
v -0.3 0.8 -0.1
v 0.4 0.8 -0.1
v -0.3 0.8 -0.2
v 0.4 0.8 -0.2
v -0.3 0.8 -0.3
v 0.4 0.8 -0.3
v -0.3 0.8 -0.5
v 0 0.8 -0.5
v 0.1 0.8 -0.5
v 0.4 0.8 -0.5
v -0.5 0.9 0.6
v -0.4 0.9 0.6
v 0.5 0.9 0.6
v 0.6 0.9 0.6
v -0.5 0.9 0.5
v -0.4 0.9 0.5
v 0.5 0.9 0.5
v 0.6 0.9 0.5
v -0.1 1 0.7
v 0 1 0.7
v 0.1 1 0.7
v 0.2 1 0.7
v -0.1 1 0.6
v 0 1 0.6
v 0.1 1 0.6
v 0.2 1 0.6
v 0 1 -0.5
v 0.1 1 -0.5
v 0 1 -0.6
v 0.1 1 -0.6
v -0.5 1.1 0.6
v -0.4 1.1 0.6
v 0.5 1.1 0.6
v 0.6 1.1 0.6
v -0.5 1.1 0.5
v -0.4 1.1 0.5
v 0.5 1.1 0.5
v 0.6 1.1 0.5
v -0.4 1.2 0.6
v -0.3 1.2 0.6
v 0.4 1.2 0.6
v 0.5 1.2 0.6
v -0.4 1.2 0.5
v -0.3 1.2 0.5
v 0.4 1.2 0.5
v 0.5 1.2 0.5
v -0.4 1.2 0.3
v -0.3 1.2 0.3
v 0.4 1.2 0.3
v 0.5 1.2 0.3
v -0.4 1.2 0.2
v -0.3 1.2 0.2
v 0.4 1.2 0.2
v 0.5 1.2 0.2
v -0.3 1.3 0.6
v -0.1 1.3 0.6
v 0 1.3 0.6
v 0.1 1.3 0.6
v 0.2 1.3 0.6
v 0.4 1.3 0.6
v -0.3 1.3 0.5
v -0.2 1.3 0.5
v -0.1 1.3 0.5
v 0.2 1.3 0.5
v 0.3 1.3 0.5
v 0.4 1.3 0.5
v -0.2 1.3 0.4
v -0.1 1.3 0.4
v 0 1.3 0.4
v 0.1 1.3 0.4
v 0.2 1.3 0.4
v 0.3 1.3 0.4
v -0.3 1.3 0.3
v -0.2 1.3 0.3
v 0.3 1.3 0.3
v 0.4 1.3 0.3
v -0.3 1.3 0.2
v 0.4 1.3 0.2
v -0.1 1.3 -0.5
v 0 1.3 -0.5
v -0.1 1.3 -0.6
v 0 1.3 -0.6
v -0.2 1.4 0.5
v -0.1 1.4 0.5
v 0.2 1.4 0.5
v 0.3 1.4 0.5
v -0.3 1.4 0.4
v -0.2 1.4 0.4
v -0.1 1.4 0.4
v 0.2 1.4 0.4
v 0.3 1.4 0.4
v 0.4 1.4 0.4
v -0.3 1.4 0.3
v -0.2 1.4 0.3
v 0.3 1.4 0.3
v 0.4 1.4 0.3
v 0 1.4 -0.5
v 0.1 1.4 -0.5
v 0 1.4 -0.6
v 0.1 1.4 -0.6
v -0.3 1.5 0.5
v -0.2 1.5 0.5
v 0.3 1.5 0.5
v 0.4 1.5 0.5
v -0.4 1.5 0.4
v -0.3 1.5 0.4
v -0.2 1.5 0.4
v 0.3 1.5 0.4
v 0.4 1.5 0.4
v 0.5 1.5 0.4
v -0.4 1.5 0.3
v -0.3 1.5 0.3
v 0.4 1.5 0.3
v 0.5 1.5 0.3
v -0.4 1.6 0.5
v -0.3 1.6 0.5
v 0.4 1.6 0.5
v 0.5 1.6 0.5
v -0.4 1.6 0.4
v -0.3 1.6 0.4
v 0.4 1.6 0.4
v 0.5 1.6 0.4

# faces
f 3/6/1 2/6/1 1/6/1
f 4/6/1 2/6/1 3/6/1
f 7/6/1 6/6/1 5/6/1
f 8/6/1 6/6/1 7/6/1
f 12/4/1 10/4/1 9/4/1
f 13/4/1 12/4/1 11/4/1
f 14/4/1 10/4/1 12/4/1
f 14/4/1 12/4/1 13/4/1
f 16/4/1 10/4/1 14/4/1
f 17/4/1 16/4/1 15/4/1
f 18/4/1 10/4/1 16/4/1
f 18/4/1 16/4/1 17/4/1
f 19/4/1 10/4/1 18/4/1
f 20/4/1 10/4/1 19/4/1
f 21/4/1 10/4/1 20/4/1
f 22/3/1 19/3/1 18/3/1
f 23/4/1 20/4/1 19/4/1
f 23/3/1 19/3/1 22/3/1
f 24/4/1 20/4/1 23/4/1
f 25/4/1 23/4/1 22/4/1
f 26/4/1 23/4/1 25/4/1
f 30/4/1 28/4/1 27/4/1
f 31/4/1 28/4/1 30/4/1
f 32/4/1 28/4/1 31/4/1
f 33/4/1 28/4/1 32/4/1
f 34/4/1 28/4/1 33/4/1
f 35/4/1 30/4/1 29/4/1
f 35/4/1 31/4/1 30/4/1
f 36/4/1 31/4/1 35/4/1
f 37/1/1 32/1/1 31/1/1
f 37/4/1 31/4/1 36/4/1
f 38/4/1 33/4/1 32/4/1
f 38/1/1 32/1/1 37/1/1
f 39/1/1 34/1/1 33/1/1
f 39/4/1 33/4/1 38/4/1
f 40/4/1 28/4/1 34/4/1
f 40/1/1 34/1/1 39/1/1
f 41/4/1 28/4/1 40/4/1
f 46/4/1 43/4/1 42/4/1
f 47/4/1 43/4/1 46/4/1
f 48/4/1 45/4/1 44/4/1
f 49/4/1 45/4/1 48/4/1
f 52/4/1 51/4/1 50/4/1
f 53/4/1 52/4/1 50/4/1
f 54/4/1 52/4/1 53/4/1
f 57/4/1 56/4/1 55/4/1
f 58/4/1 56/4/1 57/4/1
f 61/4/1 60/4/1 59/4/1
f 62/4/1 60/4/1 61/4/1
f 63/4/1 60/4/1 62/4/1
f 66/4/1 65/4/1 64/4/1
f 67/4/1 65/4/1 66/4/1
f 70/4/1 69/4/1 68/4/1
f 71/4/1 69/4/1 70/4/1
f 75/4/1 73/4/1 72/4/1
f 76/4/1 73/4/1 75/4/1
f 77/4/1 75/4/1 74/4/1
f 78/4/1 75/4/1 77/4/1
f 82/4/1 80/4/1 79/4/1
f 83/4/1 80/4/1 82/4/1
f 84/4/1 82/4/1 81/4/1
f 85/4/1 82/4/1 84/4/1
f 86/4/2 87/4/2 89/4/2
f 89/4/2 87/4/2 90/4/2
f 88/4/2 89/4/2 91/4/2
f 91/4/2 89/4/2 92/4/2
f 93/4/2 94/4/2 96/4/2
f 96/4/2 94/4/2 97/4/2
f 95/4/2 96/4/2 98/4/2
f 98/4/2 96/4/2 99/4/2
f 100/4/2 101/4/2 102/4/2
f 102/4/2 101/4/2 103/4/2
f 104/4/2 105/4/2 106/4/2
f 106/4/2 105/4/2 107/4/2
f 108/4/2 109/4/2 110/4/2
f 110/4/2 109/4/2 111/4/2
f 111/4/2 109/4/2 112/4/2
f 113/4/2 114/4/2 115/4/2
f 115/4/2 114/4/2 116/4/2
f 117/4/2 118/4/2 119/4/2
f 117/4/2 119/4/2 120/4/2
f 120/4/2 119/4/2 121/4/2
f 122/4/2 123/4/2 125/4/2
f 125/4/2 123/4/2 126/4/2
f 126/4/2 123/4/2 127/4/2
f 127/4/2 123/4/2 128/4/2
f 128/4/2 123/4/2 129/4/2
f 124/4/2 125/4/2 130/4/2
f 125/4/2 126/4/2 130/4/2
f 130/4/2 126/4/2 131/4/2
f 126/1/2 127/1/2 132/1/2
f 131/4/2 126/4/2 132/4/2
f 127/4/2 128/4/2 133/4/2
f 132/1/2 127/1/2 133/1/2
f 128/1/2 129/1/2 134/1/2
f 133/4/2 128/4/2 134/4/2
f 129/4/2 123/4/2 135/4/2
f 134/1/2 129/1/2 135/1/2
f 135/4/2 123/4/2 136/4/2
f 137/4/2 138/4/2 141/4/2
f 141/4/2 138/4/2 142/4/2
f 139/4/2 140/4/2 143/4/2
f 143/4/2 140/4/2 144/4/2
f 145/4/2 146/4/2 148/4/2
f 147/4/2 148/4/2 149/4/2
f 148/4/2 146/4/2 150/4/2
f 149/4/2 148/4/2 150/4/2
f 150/4/2 146/4/2 152/4/2
f 151/4/2 152/4/2 153/4/2
f 152/4/2 146/4/2 154/4/2
f 153/4/2 152/4/2 154/4/2
f 154/4/2 146/4/2 155/4/2
f 155/4/2 146/4/2 156/4/2
f 156/4/2 146/4/2 157/4/2
f 154/3/2 155/3/2 158/3/2
f 155/4/2 156/4/2 159/4/2
f 158/3/2 155/3/2 159/3/2
f 159/4/2 156/4/2 160/4/2
f 158/4/2 159/4/2 161/4/2
f 161/4/2 159/4/2 162/4/2
f 163/6/2 164/6/2 165/6/2
f 165/6/2 164/6/2 166/6/2
f 167/6/2 168/6/2 169/6/2
f 169/6/2 168/6/2 170/6/2
f 173/4/3 172/4/3 171/4/3
f 174/4/3 172/4/3 173/4/3
f 175/4/3 173/4/3 171/4/3
f 175/3/3 174/3/3 173/3/3
f 176/3/3 174/3/3 175/3/3
f 177/4/3 175/4/3 171/4/3
f 177/4/3 176/4/3 175/4/3
f 178/4/3 176/4/3 177/4/3
f 183/6/3 180/6/3 179/6/3
f 184/6/3 180/6/3 183/6/3
f 185/6/3 182/6/3 181/6/3
f 186/6/3 182/6/3 185/6/3
f 189/4/3 184/4/3 183/4/3
f 189/4/3 187/4/3 186/4/3
f 189/4/3 186/4/3 185/4/3
f 189/4/3 185/4/3 184/4/3
f 190/4/3 187/4/3 189/4/3
f 191/4/3 187/4/3 190/4/3
f 193/4/3 189/4/3 188/4/3
f 193/4/3 190/4/3 189/4/3
f 193/5/3 191/5/3 190/5/3
f 194/5/3 191/5/3 193/5/3
f 195/4/3 193/4/3 188/4/3
f 196/2/3 194/2/3 193/2/3
f 196/4/3 193/4/3 195/4/3
f 197/2/3 194/2/3 196/2/3
f 198/5/3 191/5/3 194/5/3
f 198/2/3 194/2/3 197/2/3
f 199/4/3 192/4/3 191/4/3
f 199/5/3 191/5/3 198/5/3
f 200/4/3 192/4/3 199/4/3
f 201/4/3 198/4/3 197/4/3
f 201/4/3 199/4/3 198/4/3
f 202/1/3 200/1/3 199/1/3
f 202/4/3 199/4/3 201/4/3
f 203/1/3 200/1/3 202/1/3
f 204/4/3 202/4/3 201/4/3
f 204/4/3 203/4/3 202/4/3
f 205/4/3 203/4/3 204/4/3
f 206/4/3 203/4/3 205/4/3
f 207/4/3 195/4/3 188/4/3
f 209/4/3 205/4/3 204/4/3
f 210/4/3 205/4/3 209/4/3
f 211/1/3 206/1/3 205/1/3
f 211/4/3 205/4/3 210/4/3
f 212/1/3 206/1/3 211/1/3
f 213/4/3 208/4/3 207/4/3
f 213/2/3 210/2/3 209/2/3
f 213/2/3 209/2/3 208/2/3
f 214/5/3 211/5/3 210/5/3
f 214/2/3 210/2/3 213/2/3
f 215/4/3 207/4/3 188/4/3
f 215/4/3 213/4/3 207/4/3
f 216/4/3 213/4/3 215/4/3
f 217/5/3 214/5/3 213/5/3
f 217/4/3 213/4/3 216/4/3
f 218/4/3 212/4/3 211/4/3
f 218/5/3 214/5/3 217/5/3
f 218/5/3 211/5/3 214/5/3
f 219/4/3 212/4/3 218/4/3
f 220/4/3 217/4/3 216/4/3
f 220/4/3 218/4/3 217/4/3
f 221/4/3 218/4/3 220/4/3
f 222/4/3 218/4/3 221/4/3
f 223/4/3 218/4/3 222/4/3
f 224/4/3 218/4/3 223/4/3
f 225/6/3 221/6/3 220/6/3
f 226/6/3 221/6/3 225/6/3
f 227/6/3 223/6/3 222/6/3
f 228/6/3 223/6/3 227/6/3
f 232/3/3 230/3/3 229/3/3
f 233/3/3 230/3/3 232/3/3
f 234/3/3 230/3/3 233/3/3
f 235/4/3 231/4/3 230/4/3
f 235/3/3 230/3/3 234/3/3
f 236/4/3 231/4/3 235/4/3
f 237/3/3 234/3/3 233/3/3
f 238/4/3 235/4/3 234/4/3
f 238/3/3 234/3/3 237/3/3
f 239/4/3 235/4/3 238/4/3
f 240/4/3 238/4/3 237/4/3
f 241/4/3 238/4/3 240/4/3
f 244/4/3 243/4/3 242/4/3
f 245/4/3 243/4/3 244/4/3
f 248/3/3 245/3/3 244/3/3
f 249/4/3 246/4/3 245/4/3
f 249/3/3 245/3/3 248/3/3
f 250/4/3 246/4/3 249/4/3
f 252/3/3 250/3/3 249/3/3
f 252/3/3 248/3/3 247/3/3
f 252/3/3 249/3/3 248/3/3
f 253/4/3 251/4/3 250/4/3
f 253/3/3 250/3/3 252/3/3
f 254/4/3 251/4/3 253/4/3
f 257/4/3 256/4/3 255/4/3
f 258/4/3 256/4/3 257/4/3
f 259/6/3 258/6/3 257/6/3
f 260/4/3 256/4/3 258/4/3
f 260/6/3 258/6/3 259/6/3
f 261/4/3 260/4/3 259/4/3
f 262/4/3 256/4/3 260/4/3
f 262/4/3 260/4/3 261/4/3
f 266/4/3 264/4/3 263/4/3
f 267/4/3 264/4/3 266/4/3
f 269/4/3 266/4/3 265/4/3
f 270/4/3 266/4/3 269/4/3
f 271/4/3 268/4/3 267/4/3
f 272/4/3 268/4/3 271/4/3
f 273/6/4 274/6/4 277/6/4
f 277/6/4 274/6/4 278/6/4
f 275/6/4 276/6/4 279/6/4
f 279/6/4 276/6/4 280/6/4
f 281/6/4 282/6/4 285/6/4
f 285/6/4 282/6/4 286/6/4
f 283/6/4 284/6/4 287/6/4
f 287/6/4 284/6/4 288/6/4
f 289/4/4 290/4/4 292/4/4
f 292/4/4 290/4/4 293/4/4
f 291/4/4 292/4/4 295/4/4
f 295/4/4 292/4/4 296/4/4
f 294/4/4 295/4/4 297/4/4
f 297/4/4 295/4/4 298/4/4
f 299/4/4 300/4/4 301/4/4
f 301/4/4 300/4/4 302/4/4
f 302/4/4 303/4/4 304/4/4
f 304/4/4 303/4/4 305/4/4
f 305/4/4 306/4/4 307/4/4
f 307/4/4 306/4/4 308/4/4
f 309/4/4 310/4/4 311/4/4
f 311/4/4 310/4/4 312/4/4
f 312/4/4 310/4/4 313/4/4
f 313/4/4 310/4/4 314/4/4
f 312/4/4 313/4/4 315/4/4
f 315/4/4 313/4/4 316/4/4
f 317/4/4 318/4/4 320/4/4
f 320/4/4 318/4/4 321/4/4
f 320/4/4 321/4/4 323/4/4
f 321/4/4 322/4/4 323/4/4
f 319/4/4 320/4/4 323/4/4
f 323/4/4 322/4/4 324/4/4
f 325/4/4 326/4/4 327/4/4
f 327/4/4 326/4/4 328/4/4
f 327/4/4 328/4/4 330/4/4
f 328/4/4 329/4/4 330/4/4
f 330/4/4 329/4/4 331/4/4
f 331/4/4 329/4/4 332/4/4
f 330/4/4 331/4/4 333/4/4
f 333/4/4 331/4/4 334/4/4
f 335/4/4 336/4/4 337/4/4
f 337/4/4 336/4/4 338/4/4
f 338/4/4 336/4/4 339/4/4
f 339/4/4 336/4/4 340/4/4
f 340/4/4 336/4/4 341/4/4
f 338/4/4 339/4/4 342/4/4
f 339/3/4 340/3/4 342/3/4
f 342/3/4 340/3/4 343/3/4
f 337/6/4 338/6/4 345/6/4
f 343/4/4 344/4/4 346/4/4
f 345/6/4 338/6/4 346/6/4
f 338/4/4 342/4/4 346/4/4
f 342/4/4 343/4/4 346/4/4
f 345/4/4 346/4/4 347/4/4
f 346/4/4 344/4/4 348/4/4
f 347/4/4 346/4/4 348/4/4
f 349/4/4 350/4/4 352/4/4
f 352/4/4 350/4/4 353/4/4
f 351/4/4 352/4/4 355/4/4
f 355/4/4 352/4/4 356/4/4
f 353/4/4 354/4/4 357/4/4
f 357/4/4 354/4/4 358/4/4
f 363/4/5 360/4/5 359/4/5
f 364/6/5 361/6/5 360/6/5
f 364/4/5 360/4/5 363/4/5
f 365/4/5 362/4/5 361/4/5
f 365/6/5 361/6/5 364/6/5
f 366/4/5 362/4/5 365/4/5
f 369/4/5 368/4/5 367/4/5
f 370/4/5 368/4/5 369/4/5
f 373/4/5 372/4/5 371/4/5
f 374/4/5 372/4/5 373/4/5
f 380/4/5 376/4/5 375/4/5
f 381/4/5 376/4/5 380/4/5
f 385/6/5 378/6/5 377/6/5
f 386/4/5 379/4/5 378/4/5
f 386/6/5 378/6/5 385/6/5
f 387/6/5 384/6/5 383/6/5
f 387/4/5 383/4/5 382/4/5
f 388/6/5 384/6/5 387/6/5
f 389/4/5 379/4/5 386/4/5
f 390/4/5 379/4/5 389/4/5
f 391/4/5 387/4/5 382/4/5
f 392/4/5 387/4/5 391/4/5
f 397/6/5 394/6/5 393/6/5
f 398/6/5 394/6/5 397/6/5
f 399/6/5 396/6/5 395/6/5
f 400/6/5 396/6/5 399/6/5
f 403/4/5 402/4/5 401/4/5
f 404/4/5 402/4/5 403/4/5
f 407/4/5 406/4/5 405/4/5
f 408/4/5 406/4/5 407/4/5
f 409/4/6 410/4/6 411/4/6
f 411/4/6 410/4/6 412/4/6
f 411/1/6 412/1/6 413/1/6
f 413/1/6 412/1/6 414/1/6
f 413/4/6 414/4/6 415/4/6
f 415/4/6 414/4/6 416/4/6
f 415/1/6 416/1/6 417/1/6
f 417/1/6 416/1/6 418/1/6
f 417/4/6 418/4/6 419/4/6
f 419/4/6 418/4/6 420/4/6
f 420/4/6 418/4/6 421/4/6
f 421/4/6 418/4/6 422/4/6
f 423/6/6 424/6/6 427/6/6
f 427/6/6 424/6/6 428/6/6
f 425/6/6 426/6/6 429/6/6
f 429/6/6 426/6/6 430/6/6
f 431/4/6 432/4/6 435/4/6
f 432/3/6 433/3/6 436/3/6
f 435/4/6 432/4/6 436/4/6
f 433/4/6 434/4/6 437/4/6
f 436/3/6 433/3/6 437/3/6
f 437/4/6 434/4/6 438/4/6
f 439/4/6 440/4/6 441/4/6
f 441/4/6 440/4/6 442/4/6
f 443/6/6 444/6/6 447/6/6
f 447/6/6 444/6/6 448/6/6
f 445/6/6 446/6/6 449/6/6
f 449/6/6 446/6/6 450/6/6
f 451/4/6 452/4/6 455/4/6
f 455/4/6 452/4/6 456/4/6
f 453/4/6 454/4/6 457/4/6
f 457/4/6 454/4/6 458/4/6
f 459/4/6 460/4/6 463/4/6
f 463/4/6 460/4/6 464/4/6
f 461/4/6 462/4/6 465/4/6
f 465/4/6 462/4/6 466/4/6
f 467/4/6 468/4/6 473/4/6
f 473/4/6 468/4/6 474/4/6
f 468/1/6 469/1/6 475/1/6
f 474/4/6 468/4/6 475/4/6
f 471/4/6 472/4/6 476/4/6
f 470/1/6 471/1/6 476/1/6
f 476/4/6 472/4/6 477/4/6
f 477/4/6 472/4/6 478/4/6
f 475/1/6 469/1/6 480/1/6
f 469/4/6 470/4/6 481/4/6
f 480/1/6 469/1/6 481/1/6
f 470/1/6 476/1/6 482/1/6
f 481/4/6 470/4/6 482/4/6
f 482/1/6 476/1/6 483/1/6
f 479/4/6 480/4/6 486/4/6
f 483/4/6 484/4/6 486/4/6
f 482/4/6 483/4/6 486/4/6
f 481/4/6 482/4/6 486/4/6
f 480/4/6 481/4/6 486/4/6
f 486/4/6 484/4/6 487/4/6
f 485/4/6 486/4/6 489/4/6
f 487/4/6 488/4/6 489/4/6
f 486/4/6 487/4/6 489/4/6
f 489/4/6 488/4/6 490/4/6
f 491/4/6 492/4/6 493/4/6
f 493/4/6 492/4/6 494/4/6
f 495/4/6 496/4/6 500/4/6
f 500/4/6 496/4/6 501/4/6
f 497/4/6 498/4/6 502/4/6
f 502/4/6 498/4/6 503/4/6
f 499/4/6 500/4/6 505/4/6
f 505/4/6 500/4/6 506/4/6
f 503/4/6 504/4/6 507/4/6
f 507/4/6 504/4/6 508/4/6
f 509/4/6 510/4/6 511/4/6
f 511/4/6 510/4/6 512/4/6
f 513/4/6 514/4/6 518/4/6
f 518/4/6 514/4/6 519/4/6
f 515/4/6 516/4/6 520/4/6
f 520/4/6 516/4/6 521/4/6
f 517/4/6 518/4/6 523/4/6
f 523/4/6 518/4/6 524/4/6
f 521/4/6 522/4/6 525/4/6
f 525/4/6 522/4/6 526/4/6
f 527/4/6 528/4/6 531/4/6
f 531/4/6 528/4/6 532/4/6
f 529/4/6 530/4/6 533/4/6
f 533/4/6 530/4/6 534/4/6
